<?xml version="1.0" encoding="utf-8"?>
<!-- Generator: Adobe Illustrator 27.6.1, SVG Export Plug-In . SVG Version: 6.00 Build 0)  -->
<svg version="1.1" id="Layer_2_00000066492738654833613000000013880575269428417952_"
	 xmlns="http://www.w3.org/2000/svg" xmlns:xlink="http://www.w3.org/1999/xlink" x="0px" y="0px" viewBox="0 0 918 907.3"
	 style="enable-background:new 0 0 918 907.3;" xml:space="preserve">
<style type="text/css">
	.st0{fill-rule:evenodd;clip-rule:evenodd;fill:#3B85C5;}
	.st1{fill:#1B597F;}
</style>
<g id="Layer_4">
	<g>
		<path class="st0" d="M357.2,2.2l80.9,39.2c6,2.9,4.9,11.8-1.6,13.2L250.9,93c-7.4,1.5-11.7-8.1-5.6-12.5L350,2.8
			C352.1,1.3,354.9,1,357.2,2.2z"/>
		<path class="st0" d="M220.3,133.2l236.2-47.3c6-1.2,10.6,5.3,7.4,10.5L354.1,278.1c-2.4,4-8,4.6-11.1,1.2L216.5,144.9
			C212.8,140.9,214.9,134.3,220.3,133.2L220.3,133.2z"/>
		<path class="st0" d="M192.3,167.9l121.1,138.8c3.2,3.7,1.8,9.5-2.9,11.2l-187.1,69.6c-5.5,2-10.9-3.1-9.2-8.7l66-208.4
			C182,165.1,188.7,163.7,192.3,167.9L192.3,167.9z"/>
		<path class="st0" d="M388.4,299.2L496.1,97.5c2.5-4.7,9.1-5,12.1-0.6L634.8,287c3,4.5,0,10.6-5.5,10.9L395,309.6
			C389.5,309.8,385.8,304.1,388.4,299.2L388.4,299.2z"/>
		<path class="st0" d="M387.4,343.6l241.4-11.5c6.5-0.3,10,7.5,5.4,12.1l-191,193.1c-3.8,3.9-10.4,2.2-11.9-3.1l-50.4-181.6
			C379.6,348.2,382.8,343.9,387.4,343.6L387.4,343.6z"/>
		<path class="st0" d="M340.1,360.3l55.8,179.6c1.9,6.1-4.7,11.4-10.2,8.2l-229-133c-5.4-3.1-4.3-11.2,1.7-12.9l173.3-46.5
			C335.2,354.6,339,356.7,340.1,360.3L340.1,360.3z"/>
		<path class="st0" d="M140.8,197.2l-54,180.3c-1.9,6.4-10.7,6.8-13.2,0.6L33,278.8c-1.1-2.8-0.4-6,1.9-8l94.5-80.9
			C134.8,185.2,142.8,190.4,140.8,197.2z"/>
		<path class="st0" d="M23.4,343.9l42.8,80.2c0.7,1.3,0.5,2.9-0.5,4l-59.5,67c-2.3,2.6-6.5,0.7-6.1-2.7l16.7-147.2
			C17.1,341.8,21.7,340.9,23.4,343.9L23.4,343.9z"/>
		<path class="st0" d="M82.8,478.2l8.9,178.5c0.4,7.3-9.2,10.2-13,4L9.8,548c-1.6-2.7-1.3-6.1,0.8-8.4l60-65.8
			C74.8,469.2,82.5,472,82.8,478.2L82.8,478.2z"/>
		<path class="st0" d="M82,694.8l35.1,40.7c0.8,0.9,0.5,2.3-0.6,2.8l-12.8,5.7c-0.9,0.4-1.9,0-2.3-0.8l-22.3-46.4
			C78.2,694.8,80.7,693.2,82,694.8L82,694.8z"/>
		<path class="st0" d="M120.3,763.3l11.1-10c0.7-0.7,1.9-0.6,2.5,0.2l33.9,41c1.3,1.6-0.7,3.7-2.4,2.6l-45-30.9
			C119.5,765.4,119.4,764.1,120.3,763.3L120.3,763.3z"/>
		<path class="st0" d="M217.1,797.5l159.1,50c6.1,1.9,6.7,10.2,1,13l-68.5,33.3c-2.6,1.3-5.7,0.8-7.8-1.2l-90.6-83.3
			C204.7,804.2,209.9,795.2,217.1,797.5L217.1,797.5z"/>
		<path class="st0" d="M165.7,722.4l88.9-61.5c2.9-2,6.9-1.5,9.3,1.1L396,802.7c4.9,5.5-0.8,13.8-7.7,11.3l-221-79.2
			C161.9,732.9,161,725.7,165.7,722.4L165.7,722.4z"/>
		<path class="st0" d="M128.6,505l96.9,120.6c2.6,3.2,1.9,8-1.6,10.2L134.1,696c-4.6,3.1-10.7-0.1-10.9-5.6l-7-180.8
			C115.9,502.9,124.4,499.7,128.6,505L128.6,505z"/>
		<path class="st0" d="M602.6,644.4l98.9,119.7c3.4,4.1,1.2,10.3-4,11.4l-220.1,46.1c-6.3,1.3-10.9-5.8-7.1-11l121.3-165.8
			C594.2,641,599.6,640.8,602.6,644.4L602.6,644.4z"/>
		<path class="st0" d="M627.8,603.2l101.3,135c3.3,4.5,10.3,3.4,12.2-1.8l74.6-201.9c2.1-5.7-3.5-11.2-9.1-9l-175.9,66.9
			C626.5,594.1,625,599.5,627.8,603.2L627.8,603.2z"/>
		<path class="st0" d="M674.2,523.6l72.9-99.7c1.1-1.6,3.3-1.9,4.9-0.8l64,45.7c2.3,1.6,1.8,5.1-0.8,6.1l-136.9,54
			C675.1,530.3,672.1,526.5,674.2,523.6L674.2,523.6z"/>
		<path class="st0" d="M767.8,388.3l59.8,45.6c2.4,1.8,5.9,0,5.6-3l-8.9-121.3c-0.2-3.3-4.6-4.5-6.4-1.7L767,383.5
			C766,385,766.4,387.1,767.8,388.3L767.8,388.3z"/>
		<path class="st0" d="M861.3,276.4l56.2,93.7c0.7,1.2,0.7,2.6-0.1,3.8l-43.5,64.5c-1.9,2.8-6.2,1.6-6.4-1.7l-12.6-158.2
			C854.5,274.8,859.4,273.2,861.3,276.4L861.3,276.4z"/>
		<path class="st0" d="M917.3,434.7l-10.9,116.9c-0.3,3.7-5.5,4.4-6.8,0.9l-23.8-66c-0.4-1.1-0.2-2.2,0.4-3.2l34.7-51
			C913,429.4,917.7,431.1,917.3,434.7L917.3,434.7z"/>
		<path class="st0" d="M864,529l30.7,101c0.8,2.6,0,5.4-2,7.3l-94.5,85.1c-5.4,4.9-13.7-0.6-11.4-7.5l63.8-186.1
			C852.9,522.3,862,522.5,864,529z"/>
		<path class="st0" d="M805.3,748.6l-32.1,42.2c-0.7,0.9-2,0.9-2.7,0.1l-8.7-9.5c-0.7-0.8-0.6-1.9,0.2-2.6l40.8-32.6
			C804.4,744.9,806.5,746.9,805.3,748.6L805.3,748.6z"/>
		<path class="st0" d="M744.8,794.2l10.3,16.5c0.5,0.9,0.2,2-0.7,2.5l-60.5,30.5c-1.8,0.9-3.5-1.5-2-2.8l50.2-47
			C742.9,793.1,744.2,793.3,744.8,794.2z"/>
		<path class="st0" d="M671.8,821.5L576,898.6c-1,0.8-2.4,1-3.5,0.5l-93.7-38.5c-3.2-1.3-2.8-6,0.6-6.7l189.5-38.5
			C672.5,814.5,674.7,819.1,671.8,821.5L671.8,821.5z"/>
		<path class="st0" d="M429.4,851.1l65.4,49.8c2.9,2,1.4,6.6-2.2,6.4l-123.5-5.9c-3.5-0.2-4.6-4.7-1.7-6.5l58.1-43.9
			C426.7,850.3,428.3,850.3,429.4,851.1L429.4,851.1z"/>
		<path class="st0" d="M443.7,0l102.8,4.8c7.2,0.3,9.3,10,2.9,13.3l-48.4,24.6c-2.1,1-4.5,1-6.5-0.1l-54.5-29.4
			C433.5,9.6,436.3-0.4,443.7,0L443.7,0z"/>
		<path class="st0" d="M608.6,15.6L545,43.1c-5.8,2.5-5.6,10.7,0.2,13L732,129.7c7.5,2.9,13.2-6.9,7-12L615.9,16.6
			C613.8,14.9,611,14.5,608.6,15.6L608.6,15.6z"/>
		<path class="st0" d="M818.3,168.5l25.7,20c0.3,0.3,0.6,0.7,0.7,1.1l4.5,28.4c0.3,1.9-2.2,2.8-3.2,1.2l-30.2-48.5
			C814.7,169.2,816.8,167.3,818.3,168.5L818.3,168.5z"/>
		<path class="st0" d="M553.6,90.6l229.2,99.6c4.7,2.1,5.7,8.3,1.9,11.7l-92.9,82.8c-3.1,2.7-7.8,2.3-10.3-1L545.2,101.2
			C540.9,95.4,547,87.7,553.6,90.6L553.6,90.6z"/>
		<path class="st0" d="M224.2,72.2l-42.4,36.2c-2.2,1.9-5.6,0.4-5.8-2.4l-1.4-20.5c-0.1-1.6,0.8-3,2.3-3.6l43.8-15.7
			C224.4,64.9,227.2,69.7,224.2,72.2L224.2,72.2z"/>
		<path class="st0" d="M154,120.7l3.4,17.6c0.3,1.4-0.3,2.8-1.4,3.6l-35.6,24.9c-3.3,2.3-7.2-1.8-4.8-5l32.2-42.5
			C149.6,116.8,153.4,117.7,154,120.7L154,120.7z"/>
	</g>
</g>
<g>
	<path class="st1" d="M131,451.6l285.7,320c3.2,3.6,9.1,1.1,8.7-3.7l-18.3-165c-0.1-1.6-1-3.1-2.4-3.9L137.4,444
		C132.5,441,127.2,447.3,131,451.6z"/>
	<path class="st1" d="M807.4,231.6l-366.9,353c-1.1,1.1-1.7,2.6-1.5,4.1l14.2,174.4c0.5,4.7,6.5,6.2,9.1,2.3l352.7-527.4
		C818.4,233.1,811.8,227.5,807.4,231.6z"/>
</g>
</svg>
