<?xml version="1.0" encoding="UTF-8"?>
<svg id="Layer_1" data-name="Layer 1" xmlns="http://www.w3.org/2000/svg" viewBox="0 0 1293.88 1293">
  <defs>
    <style>
      .cls-1 {
        fill: #08c;
      }
    </style>
  </defs>
  <path class="cls-1" d="M424.72,653.49c-12.33,0-24.66,0-37,0-8.17,0-16.35-.28-24.49,.23-2.57,.16-5.98,1.83-7.31,3.9-3.79,5.88-2.92,11.03,1.67,16.4,22.86,26.7,45.73,53.39,68.6,80.09,54.71,63.9,109.43,127.79,164.13,191.7,14.41,16.83,28.59,33.86,43.2,50.5,6.4,7.29,11.25,7.29,18.26,.57,5.64-5.41,10.99-11.17,16.06-17.11,52.11-61.07,104.16-122.19,156.18-183.35,36.15-42.51,72.22-85.1,108.33-127.65,2.66-3.14,5.07-6.42,3.16-10.82-1.99-4.55-6.13-4.49-10.21-4.46-16.49,.12-32.99,.37-49.48,.31-20.65-.08-41.3-.33-61.95-.67-10.02-.16-17.32,3.85-21.73,12.95-2.61,5.39-5.22,10.79-7.92,16.13-44.29,87.61-88.57,175.22-132.94,262.78-1.47,2.91-3.75,5.41-5.66,8.11-1.8-2.6-3.94-5.03-5.36-7.82-26.4-51.9-52.79-103.82-79.04-155.8-21.16-41.88-42.22-83.81-63.1-125.83-3.54-7.13-8.33-10.42-16.43-10.27-18.98,.35-37.97,.11-56.96,.11Zm606.08,328.43c-.03-.48-.06-1.81-.23-3.13-4.08-32.87-8.27-65.73-12.23-98.61-4.66-38.67-9.09-77.37-13.67-116.05-2.68-22.65-5.39-45.29-8.25-67.91-.75-5.92-2.47-11.63-9-13.82-6.96-2.33-12.78,.08-17.63,5.13-2.65,2.76-4.92,5.87-7.53,8.67-30.57,32.73-61.27,65.34-91.74,98.16-34.55,37.22-68.96,74.56-103.2,112.06-3.34,3.66-6.11,8.55-7.31,13.32-2.52,10.07,4.17,18.01,16.82,21.27,76.97,19.85,153.95,39.69,230.94,59.46,3.18,.82,6.62,1.44,9.83,1.13,8.44-.82,12.92-7.53,13.19-19.68Zm-745.34,26.5c3.39-.76,6.84-1.33,10.16-2.32,22.3-6.69,44.58-13.44,66.85-20.23,48.52-14.78,97.05-29.52,145.5-44.52,3.94-1.22,8.06-3.59,10.8-6.6,6.36-6.97,5.39-17.38-1.94-25.9-5.86-6.82-12.15-13.26-18.15-19.96-56.42-63.04-112.81-126.1-169.26-189.11-2.31-2.58-4.9-5.09-7.81-6.92-9.04-5.66-18.66-1.96-20.76,8.44-2.27,11.23-3.87,22.62-5.06,34.02-2.93,28.14-5.47,56.33-8.15,84.5-1.37,14.38-2.62,28.77-4.06,43.14-2.94,29.47-6.02,58.93-8.95,88.41-1.07,10.76-2.11,21.53-2.72,32.32-.29,5.03-.21,10.27,.89,15.15,1.45,6.41,5.9,9.12,12.65,9.58ZM823.22,276.16c0-.33,0-.66,0-.99,1,0,2,0,2.99,0,47.98-.39,95.95-.91,143.93-1.05,8.75-.02,14.96-3.44,19.89-10.2,4.64-6.37,3.75-11.27-3.14-15.27-6.19-3.59-12.53-6.92-18.79-10.38-95.69-52.87-191.37-105.75-287.08-158.59-2.89-1.6-5.95-3.04-9.09-4.03-5.41-1.7-8.93-.31-11.95,4.48-4.71,7.45-7.96,15.31-7.16,24.45,.48,5.46,.61,10.97,.7,16.46,.59,38.13,1.06,76.27,1.73,114.4,.16,9.14,.52,18.32,1.59,27.39,1.01,8.58,6.44,13.19,15.02,14.09,2.31,.24,4.66,.26,6.99,.23,29.31-.31,58.62-.73,87.93-.96,18.82-.15,37.63-.03,56.45-.03ZM158.13,655c0,.5,0,1,0,1.49-28.47,0-56.94-.05-85.41,.02-13.47,.03-20.26,8.52-16.12,21.31,2.42,7.49,6.36,14.62,10.41,21.44,17.78,29.89,36.23,59.39,53.73,89.44,29.81,51.18,58.97,102.74,88.7,153.98,5.75,9.91,12.63,19.18,19.45,28.41,1.46,1.98,5.2,3.84,7.33,3.35,2.22-.51,3.89-3.85,5.55-6.14,.62-.86,.64-2.23,.74-3.38,3.07-32.98,6.15-65.97,9.18-98.96,2.9-31.66,5.75-63.33,8.63-95,2.72-29.84,5.52-59.67,8.06-89.53,.3-3.55-.44-7.34-1.41-10.83-2.84-10.24-11.06-15.56-23.92-15.6-28.31-.07-56.61-.02-84.92-.02Zm969.94-27.02c0-.16,0-.31,0-.47,1.83,0,3.66,0,5.5,0,24.83,.11,49.66-.15,74.47,.51,10.1,.27,18.1-3.04,25.48-9.33,3.98-3.39,5.16-7.33,2.97-11.99-2.33-4.96-4.69-9.96-7.55-14.62-54.1-88.29-108.27-176.54-162.46-264.78-1.3-2.11-2.62-4.48-4.56-5.83-1.3-.9-4.62-1.03-5.47-.09-5.29,5.83-9.41,12.11-9.94,20.62-.99,15.95-2.78,31.85-4.41,47.75-2.74,26.66-5.93,53.29-8.37,79.98-2.88,31.49-5.05,63.04-7.76,94.55-1.18,13.76-3.4,27.44-4.32,41.22-.97,14.65,7.43,23.62,21.99,23.58,28.14-.09,56.28-.7,84.43-1.09ZM310.02,270.83c.04-.37,.09-.74,.13-1.11,2.26-.2,4.52-.59,6.78-.58,6.99,.04,13.99,.27,20.98,.36,38.81,.46,77.62,1.11,116.43,1.28,50.83,.22,101.65,.1,152.48,.03,13.88-.02,19.11-5.27,18.83-19.2-.86-42.28-1.83-84.57-2.95-126.85-.32-12.13-.68-24.32-2.12-36.35-1.23-10.28-9.47-14.08-18.84-9.55-4.18,2.02-8.05,4.68-12.12,6.96-70.07,39.39-140.16,78.75-210.22,118.17-24.81,13.96-49.52,28.07-74.31,42.07-4.91,2.78-9.12,6.04-10.88,11.76-2.25,7.3-.07,13.31,6.2,15.19,6.98,2.1,14.03,1.59,20.95-1.01-3.78-.39-7.56-.77-11.34-1.16Zm759.83,386c-5.5,0-11,0-16.5,0-19.32,.02-28.81,10.7-26.56,29.92,3.02,25.79,5.9,51.6,9.11,77.37,7.23,58.15,14.62,116.28,21.98,174.41,.84,6.6,1.55,13.26,3.1,19.71,.54,2.25,3.11,4.96,5.29,5.6,1.94,.57,5.02-.96,6.9-2.45,1.85-1.47,2.94-3.98,4.17-6.15,45.1-79.25,90.19-158.51,135.25-237.78,7.97-14.03,16.07-28.01,23.53-42.31,5.17-9.92,1.06-17.41-9.84-19.41-2.27-.42-4.63-.58-6.94-.56-45.33,.52-90.66,1.09-135.99,1.63-4.5,.05-9,0-13.5,0Zm-404.55,478.31c-.24,0-.48,0-.72,0,0,15.15,0,30.3,0,45.45,0,9.15-.35,18.33,.18,27.45,.45,7.64,4.77,12.6,11.19,12.4,4.79-.15,9.93-1.61,14.21-3.85,86.42-45.13,172.76-90.42,259.06-135.77,16.35-8.59,32.55-17.46,48.74-26.36,6.95-3.82,9.17-10.73,4.39-15.59-2.7-2.74-7.46-4.78-11.32-4.84-26.48-.41-52.97-.37-79.45-.17-20.98,.15-41.99,.17-62.94,1.28-21.09,1.12-41.98-2.32-63.23-.46-26.14,2.29-52.59,1.07-78.9,1.5-12.25,.2-24.28,1.56-34.91,8.55-5.36,3.52-6.38,5.98-4.94,12.12,.38,1.6,.78,3.27,.74,4.89-.66,24.46-1.39,48.93-2.11,73.39ZM262.59,314.01c.12,2,.12,3.84,.35,5.65,3.62,28.56,7.38,57.11,10.9,85.69,8.02,65.09,15.93,130.19,23.88,195.28,.7,5.71,3.27,10.07,8.77,12.36,5.38,2.23,9.59-.23,12.92-3.95,10.43-11.65,20.72-23.43,30.85-35.34,39.06-45.93,78.05-91.91,117.02-137.92,10.9-12.86,10.01-19.12-4.04-27.96-57.76-36.35-115.57-72.6-173.33-108.94-6.34-3.99-13.02-5.77-19.8-2.15-6.8,3.63-7.11,10.69-7.51,17.28Zm758.3,.05c.2-4.09-2.28-9.04-7.7-12.44-5.23-3.28-10.21-1.86-15.03,1.03-53.37,32-106.73,63.99-160.08,96.03-6.56,3.94-13.15,7.86-19.44,12.21-10.73,7.42-11.96,17.27-3.75,27.32,1.05,1.29,2.19,2.5,3.33,3.72,11.8,12.66,23.93,25.04,35.37,38.03,35.76,40.63,72.22,80.59,110.61,118.77,5.16,5.13,10.75,7.64,17.98,5.02,7.13-2.59,11.96-7.03,12.75-15.01,2.9-29.31,5.93-58.62,8.74-87.94,3.28-34.3,6.39-68.61,9.55-102.92,2.51-27.18,4.98-54.36,7.68-83.82ZM469.6,1035.49c0-.12,0-.25,0-.37-2.67,0-5.33,.02-8,0-47.14-.43-94.27-1-141.41-1.06-4.59,0-9.63,2.43-13.68,4.98-5.36,3.37-5.2,9.83-.31,13.94,2.02,1.7,4.36,3.08,6.72,4.29,13.74,7.09,27.63,13.91,41.29,21.16,42.62,22.6,85.21,45.28,127.73,68.06,43.85,23.49,87.55,47.25,131.45,70.64,15.02,8,23.77,2.48,24.44-14.73,.02-.5,.02-1,.02-1.5,.22-27.64,.48-55.28,.66-82.91,.08-13.33,.07-26.66,0-39.99-.04-7.99,.22-16.03-.55-23.96-1.07-11.03-7.43-16.67-18.47-17.05-17.8-.61-35.61-1.3-53.42-1.42-32.15-.23-64.31-.06-96.46-.06ZM156.16,628c0-.28,0-.56,0-.83,11.82,0,23.63,.08,35.45-.02,15.82-.14,31.64-.4,47.46-.65,18.98-.29,30.55-12.93,28.35-31.19-2.89-23.96-5.81-47.92-8.99-71.85-7.18-54.12-14.51-108.22-21.83-162.32-1.18-8.74-2.35-17.5-4.13-26.13-.47-2.29-2.89-5.36-4.92-5.81-1.96-.43-4.63,1.94-6.84,3.31-.76,.47-1.1,1.63-1.61,2.49-19.1,32.02-38.22,64.03-57.3,96.06-32.2,54.04-64.39,108.09-96.52,162.17-2.8,4.71-5.6,9.5-7.59,14.58-4.87,12.43,1.32,20.96,14.55,20.68,10.16-.22,20.31-.43,30.47-.48,17.82-.08,35.63-.02,53.45-.02Zm490.54,28.83c-33.66,0-67.32,0-100.97,0-5.91,0-7.57,1.15-7.04,6.86,.47,5.19,1.45,10.66,3.67,15.31,20.6,43.25,41.58,86.32,62.3,129.5,11.87,24.74,23.49,49.6,35.21,74.41,2.23,4.72,5.34,5.43,8.81,1.59,1.97-2.19,3.69-4.76,4.93-7.43,28.85-62.15,57.61-124.34,86.4-186.51,4.12-8.9,8.37-17.75,12.43-26.69,2.52-5.53,1.64-6.87-4.26-7.03-1.33-.04-2.67-.01-4-.01-32.49,0-64.98,0-97.48,0Zm211.63-33.33c16.66,0,33.32,.01,49.97,0,3.81,0,7.65,.12,11.42-.26,5.1-.52,8.45-3.51,10.23-8.33,1.69-4.57-.96-7.61-3.63-10.65-8.55-9.77-17.16-19.49-25.64-29.32-38.92-45.14-77.8-90.32-116.7-135.48-6.57-7.62-14.8-11.59-24.97-11.47-8.83,.1-17.66,.02-26.49,.02-12.33,0-24.65-.06-36.98,.02-8.13,.05-11.18,4.54-8.25,12.12,.95,2.47,2.19,4.86,3.53,7.14,33.19,56.34,66.46,112.63,99.56,169.02,3.07,5.24,6.97,7.36,12.98,7.29,18.32-.23,36.65-.08,54.97-.08Zm-434.14,0c0,.11,0,.22,0,.33,18.49,0,36.99-.03,55.48,.01,8.02,.02,13.94-3.23,18.06-10.29,34.53-59.06,69.17-118.06,103.76-177.08,4.1-7,3.19-8.64-4.9-8.63-21.83,.02-43.65,.2-65.48,.11-9.52-.04-16.93,3.71-23.08,10.84-46.26,53.59-92.63,107.07-138.83,160.71-3.19,3.7-5.93,8.13-7.63,12.69-3.41,9.1-1.62,11.27,8.12,11.3,18.17,.05,36.33,.01,54.5,.01Zm218.41,4.49c0,.06,0,.11,0,.17,27.5,0,54.99,0,82.49,0,6,0,12.02,.26,17.99-.11,9.51-.58,13.18-7.88,8.09-15.52-.55-.83-1.07-1.69-1.57-2.55-33.13-56.4-66.24-112.82-99.42-169.19-1.59-2.71-3.81-5.05-5.74-7.56-1.87,2.59-4.01,5.03-5.57,7.79-25.88,45.78-51.68,91.61-77.5,137.42-7.68,13.63-15.51,27.18-23.01,40.91-3.36,6.15-1.76,8.46,5.25,8.64,1.17,.03,2.33,0,3.5,0,31.83,0,63.66,0,95.49,0ZM999.54,201.08c-.73-2.12-1.78-5.79-3.22-9.3-14.85-36.14-29.68-72.29-44.78-108.33-1.88-4.5-4.81-8.81-8.14-12.4-9.54-10.29-22.22-12.85-35.56-12.84-17.65,.02-35.31,.73-52.95,.54-42.79-.45-85.59-1.24-128.38-1.93-3.62-.06-5.14,1.37-4.99,5.07,.05,1.34-.72,3.2-1.75,4.01-3.96,3.09-4.1,3.93-.1,6.79,1.35,.96,2.8,1.8,4.27,2.57,86.4,45.88,172.79,91.76,259.21,137.59,8.07,4.28,16.23-.86,16.38-11.78ZM474.16,1235.83v2.17c30.31,0,60.63,.02,90.95-.03,2.64,0,5.39-.08,7.9-.8,4.05-1.17,4.67-4.94,1.45-7.6-1.01-.83-2.26-1.4-3.42-2.03-75.87-40.88-151.73-81.78-227.63-122.61-12.6-6.78-25.27-13.44-38.14-19.68-2.61-1.26-7.46-1.73-9.12-.21-2.4,2.2-3.56,6.48-3.89,10-.26,2.74,1.23,5.83,2.51,8.49,15.66,32.51,31.58,64.85,42.93,99.29,7.1,21.54,23.1,32.78,44.04,32.96,30.81,.26,61.63,.07,92.44,.07Zm435.17-7.12c0,.15,.02,.3,.03,.45,4.66,0,9.33,0,13.99,0,23.88,0,38.28-9.77,47.23-31.95,6.9-17.11,13.95-34.17,20.77-51.31,7.75-19.47,15.35-38.99,22.97-58.51,1.44-3.68,2.67-8.11-1.06-10.51-2.45-1.57-6.75-1.74-9.65-.79-5.95,1.96-11.75,4.67-17.2,7.8-78.31,45.06-156.54,90.25-234.82,135.38-4.03,2.32-8.45,4.03-12.26,6.64-1.71,1.17-3.55,4.14-3.17,5.81,.38,1.68,3.32,2.99,5.36,4,1.07,.53,2.62,.12,3.95,.07,12.3-.53,24.6-1.14,36.9-1.61,26.94-1.02,53.89-1.88,80.83-2.99,15.38-.63,30.74-1.64,46.11-2.47ZM280.3,208.95c-.34,7.59,3.45,10.55,9.17,8.21,4.6-1.88,9.06-4.19,13.4-6.63,76.67-43.26,153.32-86.55,229.96-129.87,7.1-4.01,14.23-8,21.02-12.49,1.82-1.21,2.44-4.24,3.61-6.43-2.2-1.08-4.35-2.89-6.62-3.08-4.78-.39-9.64,.04-14.46,.21-55.07,1.87-110.13,4.01-165.21,5.51-22.02,.6-38.78,8.22-47.14,29.82-13.51,34.89-27.08,69.77-40.55,104.67-1.43,3.7-2.39,7.59-3.17,10.07Zm954.05,343.21c7.36-4.31,10.83-9.52,8.36-17.45-.54-1.74-.76-3.58-1.02-5.39-3.98-27.67-7.85-55.36-11.95-83.01-1.93-12.99-4.67-25.86-6.31-38.88-1.1-8.72-.17-17.71-1.47-26.39-2.41-16.08-5.76-32.01-8.76-48-3.55-18.9-15.51-30.04-34.46-33.59-26.48-4.97-52.84-10.52-79.22-15.97-5.44-1.12-9.47,.47-12.55,4.88-1.24,1.77-2.16,3.8-3.56,5.41-2.62,3.02-2.35,5.84-.38,9.09,48.82,80.35,97.59,160.72,146.37,241.09,1.61,2.65,3.2,5.31,4.95,8.21ZM208.67,999.81c-.61-1.5-1.48-4.57-3.03-7.24-2.99-5.19-6.43-10.11-9.55-15.22-43.86-71.88-87.7-143.78-131.54-215.68-2.6-4.26-5.03-8.65-7.96-12.68-1.06-1.45-3.36-2.01-5.09-2.97-.93,1.9-1.96,3.76-2.72,5.73-.26,.67,.19,1.62,.32,2.44,2.15,13.14,4.52,26.24,6.42,39.41,7.85,54.52,15.51,109.06,23.34,163.58,3.26,22.67,16.48,35.96,37.89,38.78,6.92,.91,13.79,2.22,20.63,3.61,19.24,3.9,38.43,8.02,57.67,11.89,7.38,1.48,13.67-3.35,13.61-11.66Zm894.03,.72c2.63-.2,4.18-.11,5.6-.46,29.68-7.43,59.45-14.53,88.97-22.55,13.91-3.78,22.2-14.15,24.35-28.29,3.13-20.56,5.38-41.26,7.97-61.91,4.87-38.81,9.73-77.62,14.57-116.43,1.38-11.07,2.76-22.14,3.8-33.24,.16-1.71-1.18-4.14-2.6-5.17-.73-.53-3.58,.93-4.74,2.18-2.01,2.17-3.62,4.77-5.11,7.36-25.19,43.88-50.23,87.84-75.51,131.67-21.94,38.05-44.13,75.96-66.21,113.94-.5,.86-.98,1.75-1.33,2.67-1.67,4.35,.4,8.56,4.94,9.66,2.08,.5,4.28,.47,5.31,.57ZM46.92,557.54c.42,.87,1.34,2.8,2.27,4.72,1.7-1.31,3.49-2.52,5.07-3.97,.82-.76,1.29-1.92,1.87-2.93,19.71-34.52,39.45-69.02,59.11-103.57,26.73-46.99,53.4-94.01,80.09-141.03,2.49-4.38,4.07-8.97,.88-13.59-2.96-4.29-7.62-3.93-11.84-2.97-28.54,6.5-57.1,12.9-85.5,19.97-14.09,3.51-23.11,13.21-26.08,27.42-2.59,12.35-4.45,24.89-5.88,37.43-4.77,41.66-9.18,83.35-13.79,125.03-1.92,17.37-4.01,34.72-6.18,53.49ZM818.65,299.83c-27.83,0-55.65,.02-83.48-.01-7.16,0-14.33-.42-21.47-.21-6.1,.18-9.59,3.58-11.68,9.89-1.67,5.04,1.14,7.81,4.73,10.37,.94,.67,1.72,1.57,2.57,2.36,22.21,20.87,44.39,41.75,66.63,62.59,5.08,4.76,8.73,5.09,14.95,1.86,41.79-21.66,83.65-43.19,125.3-65.12,4.97-2.62,9.37-6.91,13.02-11.27,4.35-5.2,1.81-9.79-5.1-10.4-1.49-.13-3-.07-4.5-.07-33.66,0-67.32,0-100.98,0Zm-340.5,2.53c0-.12,0-.24,0-.36-15.33,0-30.65-.11-45.98,.03-20.15,.17-40.29,.43-60.43,.94-2.31,.06-5.55,1.3-6.68,3.07-3.05,4.76-.53,12.24,4.53,14.89,22.68,11.9,45.39,23.75,68.14,35.51,1.44,.75,3.85,1.34,4.98,.65,3.01-1.84,5.21-.78,7.85,.61,17.23,9.04,34.5,18.02,51.83,26.86,5.67,2.89,9.56,2.07,14.1-2.2,8.61-8.1,17.23-16.19,25.85-24.28,15.42-14.47,30.93-28.84,46.15-43.51,1.92-1.86,3.43-5.42,3.16-7.98-.41-3.95-4.41-3.69-7.62-3.77-4.49-.1-8.98-.43-13.47-.44-30.8-.04-61.61-.02-92.41-.02Zm168.85,96.64c28.33,0,56.66,.01,84.99-.01,5.96,0,9.22-3.4,7.52-8.1-.7-1.92-2.28-3.66-3.83-5.09-10.26-9.51-20.56-18.97-30.95-28.33-15.96-14.39-31.96-28.73-48.01-43-7.63-6.78-13.31-6.25-20.04,1.53-1.63,1.88-3.24,3.82-5.1,5.47-24.45,21.61-48.96,43.16-73.43,64.75-2.79,2.46-4.64,5.36-3.12,9.24,1.46,3.7,4.71,3.59,7.98,3.58,28-.04,56-.02,83.99-.02Zm514.81,621.65c-5.88,1.29-10.6,2.2-15.26,3.36-22.41,5.58-44.91,10.85-67.17,16.99-13.01,3.59-22.54,12.3-27.62,24.9-9.07,22.51-17.68,45.21-26.37,67.87-3.33,8.68-6.38,17.47-9.48,26.24-1.9,5.38,.01,8.17,5.44,6.9,3.48-.81,6.99-3.05,9.64-5.55,17.83-16.76,35.51-33.69,53.1-50.71,26.93-26.05,53.8-52.16,80.54-78.41,1.89-1.86,3.78-5.32,3.29-7.51-.41-1.86-4.26-2.95-6.12-4.1Zm-10.12-761.83c4.77,.03,6.17-1.94,4.09-5.62-1.36-2.41-3.26-4.62-5.31-6.51-41.11-37.94-82.26-75.83-123.44-113.7-5.39-4.96-10.89-9.81-16.55-14.45-1.13-.92-3.23-.67-4.88-.95-.29,1.67-.77,3.34-.78,5.02,0,.89,.86,1.77,1.22,2.7,9.59,24.73,20.8,48.84,25.94,75.19,6.42,32.89,24.1,49.4,56.65,54.11,2.69,.39,6.35,.16,8.23-1.4,2.81-2.32,5.35-2.97,8.64-2.36,3.27,.61,6.56,1.13,9.84,1.69,12.29,2.12,24.59,4.24,36.34,6.27Zm-1028.09,12.39l1.24,.75c.01,6.28,1.3,7.3,7.51,5.98,.65-.14,1.27-.4,1.92-.55,17.35-3.94,34.56-8.7,52.08-11.62,25.98-4.33,43.14-18.53,52.63-42.72,9.17-23.38,18.46-46.71,27.64-70.08,2.67-6.81,5.29-13.65,7.53-20.61,.55-1.72-.47-3.94-.76-5.93-1.98,.36-4.25,.23-5.86,1.19-2.38,1.43-4.37,3.57-6.39,5.55-20.27,19.77-40.49,39.59-60.77,59.34-23.63,23-47.37,45.88-70.87,69.02-2.61,2.57-3.96,6.43-5.9,9.69ZM780.91,1017c0-.95,0-1.89,0-2.84,29.12,0,58.23,.09,87.35-.08,4.95-.03,9.96-.84,14.81-1.87,4.32-.92,6.42-6.11,3.75-9.37-1.53-1.88-4.22-3.19-6.64-3.91-44.28-13.17-88.58-26.23-132.9-39.26-7.29-2.14-13.73-.6-19.28,4.82-4.64,4.53-9.53,8.8-14.32,13.18-10.57,9.64-21.21,19.2-31.62,29-1.34,1.26-2.56,4.14-2,5.55,.68,1.72,3.14,3.37,5.11,3.8,3.7,.81,7.59,.96,11.4,.97,28.12,.07,56.23,.04,84.35,.04Zm-637.23,15.1c-1.75,.96-5.51,1.79-6.35,3.83-.83,2.02,.96,5.42,2.22,7.89,.94,1.85,2.78,3.29,4.37,4.75,45.09,41.26,90.2,82.49,135.32,123.71,1.46,1.34,2.98,2.98,4.76,3.51,1.68,.5,4.25,.36,5.48-.66,1.14-.95,1.66-3.54,1.33-5.19-.54-2.72-1.95-5.27-3.06-7.87-11.96-28.16-23.78-56.39-35.97-84.46-6.68-15.39-17.9-25.79-34.75-29.47-15.27-3.34-30.49-6.91-45.76-10.28-8.77-1.94-17.58-3.68-27.6-5.76Zm419.43-16.1c15.52,0,26.84,.05,38.16-.03,3.48-.02,7.16,.07,8.65-4.24,1.47-4.25-.87-6.99-3.67-9.53-14.29-12.98-28.65-25.88-42.86-38.95-4.9-4.51-10.21-5.64-16.55-3.79-44.2,12.88-88.43,25.67-132.63,38.53-2.21,.64-4.9,1.2-6.27,2.76-1.79,2.04-3.4,5.09-3.29,7.62,.06,1.48,3.56,3.84,5.66,4.01,7.91,.66,15.89,.57,23.84,.78,18.62,.49,37.24,1.15,55.86,1.41,12.14,.17,24.29-.56,36.42-.29,13.63,.3,27.24,1.26,36.68,1.72ZM502.96,34.09c.04,.4,.08,.8,.11,1.19,1.87,.24,3.75,.73,5.6,.67,6.32-.21,12.63-.6,18.94-.96,23.09-1.31,46.19-2.43,69.26-4.02,12.5-.86,20.62-7.83,23.47-18.96,1.5-5.88-.34-9.44-6.25-9.95-5.71-.49-11.72-.66-17.26,.55-22.89,5.01-45.65,10.57-68.45,15.98-8.15,1.93-16.28,3.99-24.42,5.99,.05,.4,.1,.8,.16,1.2l15.54,1.46c.03,.53,.06,1.07,.09,1.6l-16.78,5.24Zm766.41,472.63c-5.37,7.99-8.44,15.34-7.69,23.89,.29,3.31,.85,6.6,.98,9.91,.78,21.44,1.19,42.9,2.4,64.32,.31,5.42,2.46,11,4.86,15.98,2.78,5.75,7.79,6.7,13.52,3.73,8.45-4.37,11.59-12.85,8.85-24.61-6.84-29.28-13.78-58.55-20.72-87.81-.37-1.55-1.19-2.99-2.19-5.41Zm-4.85,266.61c.49,.16,.98,.32,1.46,.48,.77-.57,1.63-1.73,2.28-1.62,5.2,.89,5.63-2.69,6.18-6.27,.2-1.31,.48-2.62,.75-3.92,5.99-28.83,12.03-57.66,17.96-86.51,1.27-6.18,1.18-12.32-2.77-17.71-2.31-3.16-5.26-4.8-8.97-2.2-7.83,5.5-14.61,12.08-15.86,22.03-1.01,8.04-.96,16.23-1,24.36-.12,23.79-.04,47.58-.04,71.37ZM25.05,790.98l1.69-.25c.31-2.21,.97-4.43,.89-6.62-.98-30.25-2-60.5-3.17-90.75-.27-7.08-1.91-13.89-6.78-19.41-5.09-5.77-13.41-4.41-15.16,2.98-1.38,5.83-2.25,12.39-1,18.12,6.66,30.52,14.03,60.89,21.24,91.29,.39,1.64,1.51,3.1,2.29,4.64Zm-.62-271.4l-2.26-.35c-.83,2-2,3.93-2.45,6.01-6.56,30.4-13.3,60.78-19.27,91.3-1.18,6.05,.26,12.76,1.25,19.04,.57,3.64,3.68,6.68,7.47,5.97,2.58-.48,5.52-2.97,6.89-5.37,6.85-11.99,7.33-25.32,7.45-38.73,.19-21.46,.61-42.91,.91-64.37,.06-4.5,0-9,0-13.5Z"/>
  <path class="cls-1" d="M676.69,0c13.08,2.96,26.14,6.01,39.24,8.84,16.25,3.52,32.54,6.82,48.8,10.32,1.94,.42,3.73,1.5,5.59,2.27-.08,.46-.15,.91-.23,1.37-7.98,.37-15.95,.75-23.93,1.12l-.48,1.7c3.67,1.51,7.34,3.01,11.01,4.52,0,.39-.01,.79-.02,1.18-2,.49-4,1.42-5.99,1.39-18.96-.31-37.91-.68-56.86-1.24-8.3-.25-16.68-.37-24.84-1.69-4.91-.8-9.61-3.51-14.11-5.92-3.46-1.86-3.88-4.97-1.86-8.56,1.26-2.25,1.59-5.03,2.88-7.25,1.65-2.84,3.85-5.37,5.81-8.04,5,0,10,0,15,0Z"/>
  <path class="cls-1" d="M618.69,1293c-11.96-2.66-23.9-5.38-35.88-7.97-18.84-4.06-37.71-8.01-56.56-12.06-1.33-.29-2.58-.99-3.86-1.49-.01-.5-.03-1-.04-1.51,1.7-.49,3.4-1.43,5.09-1.41,30.1,.44,60.21,.77,90.3,1.74,5.4,.18,10.84,2.8,16,4.93,3.86,1.59,6.42,4.74,5.92,9.44-.5,4.65-3.93,6.17-7.75,7.33-.77,.23-1.48,.65-2.22,.98h-11Z"/>
  <path class="cls-1" d="M683.69,1293c-3.04-1.19-6.17-2.21-9.11-3.63-3.72-1.79-4.36-4.74-2.36-8.29,3.59-6.34,9.41-9.54,16.32-10.05,17.07-1.26,34.16-2.24,51.26-2.98,15.28-.66,30.58-.87,45.88-1.19,1.77-.04,3.56,.54,5.34,.83,0,.52,.02,1.04,.02,1.55-7.63,1.89-15.25,3.86-22.9,5.65-24.75,5.8-49.51,11.52-74.27,17.3-.43,.1-.79,.52-1.18,.79h-9Z"/>
  <path class="cls-1" d="M424.72,653.49c18.99,0,37.98,.24,56.96-.11,8.1-.15,12.88,3.14,16.43,10.27,20.88,42.02,41.95,83.95,63.1,125.83,26.25,51.98,52.64,103.89,79.04,155.8,1.42,2.79,3.56,5.22,5.36,7.82,1.9-2.69,4.18-5.19,5.66-8.11,44.36-87.57,88.65-175.18,132.94-262.78,2.7-5.35,5.31-10.74,7.92-16.13,4.4-9.1,11.71-13.11,21.73-12.95,20.65,.33,41.3,.59,61.95,.67,16.49,.06,32.99-.18,49.48-.31,4.08-.03,8.23-.09,10.21,4.46,1.92,4.4-.5,7.68-3.16,10.82-36.1,42.55-72.17,85.14-108.33,127.65-52.01,61.16-104.07,122.28-156.18,183.35-5.07,5.95-10.42,11.71-16.06,17.11-7.01,6.72-11.86,6.72-18.26-.57-14.61-16.65-28.8-33.67-43.2-50.5-54.7-63.91-109.41-127.8-164.13-191.7-22.86-26.7-45.74-53.38-68.6-80.09-4.6-5.37-5.47-10.51-1.67-16.4,1.33-2.07,4.75-3.74,7.31-3.9,8.14-.51,16.32-.22,24.49-.23,12.33,0,24.66,0,37,0Z"/>
  <path class="cls-1" d="M1030.8,981.93c-.27,12.15-4.75,18.86-13.19,19.68-3.22,.31-6.66-.31-9.83-1.13-76.99-19.77-153.97-39.61-230.94-59.46-12.64-3.26-19.34-11.2-16.82-21.27,1.19-4.78,3.96-9.66,7.31-13.32,34.24-37.5,68.66-74.84,103.2-112.06,30.47-32.83,61.17-65.43,91.74-98.16,2.61-2.8,4.89-5.91,7.53-8.67,4.85-5.05,10.66-7.46,17.63-5.13,6.53,2.19,8.25,7.9,9,13.82,2.86,22.62,5.57,45.27,8.25,67.91,4.58,38.68,9.01,77.38,13.67,116.05,3.96,32.88,8.15,65.74,12.23,98.61,.16,1.32,.19,2.65,.23,3.13Z"/>
  <path class="cls-1" d="M285.46,1008.43c-6.75-.46-11.2-3.18-12.65-9.58-1.1-4.88-1.18-10.12-.89-15.15,.62-10.79,1.65-21.56,2.72-32.32,2.93-29.47,6-58.93,8.95-88.41,1.44-14.37,2.69-28.76,4.06-43.14,2.68-28.17,5.22-56.35,8.15-84.5,1.19-11.4,2.8-22.8,5.06-34.02,2.1-10.41,11.72-14.11,20.76-8.44,2.91,1.82,5.5,4.34,7.81,6.92,56.45,63.01,112.84,126.07,169.26,189.11,6,6.7,12.29,13.15,18.15,19.96,7.33,8.53,8.31,18.93,1.94,25.9-2.75,3.01-6.86,5.38-10.8,6.6-48.45,15-96.98,29.74-145.5,44.52-22.27,6.78-44.55,13.54-66.85,20.23-3.32,1-6.77,1.56-10.16,2.32Z"/>
  <path class="cls-1" d="M823.22,276.16c-18.82,0-37.63-.12-56.45,.03-29.31,.23-58.62,.65-87.93,.96-2.33,.03-4.68,0-6.99-.23-8.58-.9-14.01-5.5-15.02-14.09-1.07-9.07-1.42-18.25-1.59-27.39-.68-38.13-1.14-76.27-1.73-114.4-.09-5.49-.22-10.99-.7-16.46-.79-9.13,2.46-17,7.16-24.45,3.02-4.78,6.54-6.18,11.95-4.48,3.14,.99,6.2,2.43,9.09,4.03,95.71,52.84,191.39,105.72,287.08,158.59,6.26,3.46,12.6,6.79,18.79,10.38,6.89,4,7.79,8.9,3.14,15.27-4.93,6.76-11.14,10.17-19.89,10.2-47.98,.13-95.95,.66-143.93,1.05-1,0-2,0-2.99,0,0,.33,0,.66,0,.99Z"/>
  <path class="cls-1" d="M158.13,655c28.31,0,56.61-.05,84.92,.02,12.86,.03,21.08,5.35,23.92,15.6,.96,3.48,1.71,7.27,1.41,10.83-2.54,29.86-5.34,59.69-8.06,89.53-2.88,31.67-5.73,63.34-8.63,95-3.03,32.99-6.1,65.97-9.18,98.96-.11,1.15-.12,2.52-.74,3.38-1.66,2.29-3.33,5.62-5.55,6.14-2.13,.49-5.87-1.37-7.33-3.35-6.81-9.23-13.7-18.51-19.45-28.41-29.73-51.23-58.89-102.79-88.7-153.98-17.5-30.05-35.95-59.55-53.73-89.44-4.05-6.82-7.99-13.95-10.41-21.44-4.14-12.8,2.66-21.28,16.12-21.31,28.47-.07,56.94-.02,85.41-.02,0-.5,0-1,0-1.49Z"/>
  <path class="cls-1" d="M1128.07,627.98c-28.14,.39-56.28,1-84.43,1.09-14.56,.05-22.96-8.93-21.99-23.58,.92-13.77,3.14-27.45,4.32-41.22,2.71-31.51,4.88-63.06,7.76-94.55,2.44-26.69,5.63-53.31,8.37-79.98,1.64-15.9,3.42-31.8,4.41-47.75,.53-8.51,4.65-14.8,9.94-20.62,.85-.94,4.17-.81,5.47,.09,1.94,1.35,3.26,3.72,4.56,5.83,54.19,88.24,108.36,176.49,162.46,264.78,2.86,4.67,5.22,9.66,7.55,14.62,2.19,4.66,1.01,8.6-2.97,11.99-7.38,6.28-15.38,9.59-25.48,9.33-24.81-.66-49.65-.4-74.47-.51-1.83,0-3.66,0-5.5,0,0,.16,0,.31,0,.47Z"/>
  <path class="cls-1" d="M310.02,270.83c3.78,.39,7.56,.77,11.34,1.16-6.92,2.6-13.96,3.11-20.95,1.01-6.27-1.89-8.45-7.89-6.2-15.19,1.76-5.72,5.97-8.98,10.88-11.76,24.78-14,49.5-28.11,74.31-42.07,70.06-39.42,140.15-78.77,210.22-118.17,4.06-2.28,7.93-4.94,12.12-6.96,9.37-4.53,17.61-.73,18.84,9.55,1.44,12.03,1.8,24.22,2.12,36.35,1.12,42.28,2.1,84.56,2.95,126.85,.28,13.93-4.95,19.18-18.83,19.2-50.83,.07-101.65,.2-152.48-.03-38.81-.17-77.62-.82-116.43-1.28-6.99-.08-13.99-.32-20.98-.36-2.26-.01-4.52,.37-6.78,.58-.04,.37-.09,.74-.13,1.11Z"/>
  <path class="cls-1" d="M1069.85,656.83c4.5,0,9,.05,13.5,0,45.33-.54,90.66-1.11,135.99-1.63,2.31-.03,4.67,.14,6.94,.56,10.89,1.99,15.01,9.49,9.84,19.41-7.46,14.3-15.56,28.28-23.53,42.31-45.05,79.28-90.15,158.53-135.25,237.78-1.23,2.16-2.32,4.68-4.17,6.15-1.88,1.49-4.95,3.01-6.9,2.45-2.19-.64-4.75-3.35-5.29-5.6-1.54-6.45-2.26-13.11-3.1-19.71-7.36-58.13-14.74-116.26-21.98-174.41-3.21-25.77-6.08-51.58-9.11-77.37-2.25-19.22,7.24-29.9,26.56-29.92,5.5,0,11,0,16.5,0Z"/>
  <path class="cls-1" d="M665.3,1135.14c.72-24.46,1.45-48.93,2.11-73.39,.04-1.62-.36-3.29-.74-4.89-1.44-6.14-.42-8.6,4.94-12.12,10.63-6.99,22.66-8.35,34.91-8.55,26.31-.43,52.76,.79,78.9-1.5,21.25-1.86,42.13,1.58,63.23,.46,20.94-1.11,41.95-1.12,62.94-1.28,26.48-.2,52.97-.24,79.45,.17,3.87,.06,8.62,2.1,11.32,4.84,4.78,4.86,2.56,11.77-4.39,15.59-16.18,8.9-32.39,17.77-48.74,26.36-86.31,45.34-172.64,90.64-259.06,135.77-4.28,2.23-9.42,3.7-14.21,3.85-6.42,.2-10.74-4.76-11.19-12.4-.53-9.12-.18-18.3-.18-27.45-.01-15.15,0-30.3,0-45.45,.24,0,.48,0,.72,0Z"/>
  <path class="cls-1" d="M262.59,314.01c.4-6.59,.71-13.65,7.51-17.28,6.78-3.62,13.46-1.84,19.8,2.15,57.76,36.34,115.57,72.6,173.33,108.94,14.05,8.84,14.94,15.1,4.04,27.96-38.97,46.01-77.96,91.99-117.02,137.92-10.13,11.91-20.42,23.69-30.85,35.34-3.33,3.72-7.54,6.18-12.92,3.95-5.5-2.28-8.07-6.65-8.77-12.36-7.95-65.1-15.86-130.2-23.88-195.28-3.52-28.58-7.28-57.12-10.9-85.69-.23-1.81-.23-3.65-.35-5.65Z"/>
  <path class="cls-1" d="M1020.89,314.06c-2.7,29.46-5.17,56.64-7.68,83.82-3.16,34.31-6.27,68.62-9.55,102.92-2.8,29.32-5.84,58.62-8.74,87.94-.79,7.98-5.61,12.42-12.75,15.01-7.23,2.63-12.81,.12-17.98-5.02-38.39-38.17-74.86-78.13-110.61-118.77-11.43-12.99-23.56-25.37-35.37-38.03-1.13-1.22-2.28-2.43-3.33-3.72-8.21-10.05-6.98-19.9,3.75-27.32,6.29-4.35,12.88-8.27,19.44-12.21,53.34-32.04,106.71-64.03,160.08-96.03,4.81-2.88,9.79-4.31,15.03-1.03,5.42,3.4,7.9,8.35,7.7,12.44Z"/>
  <path class="cls-1" d="M469.6,1035.49c32.15,0,64.31-.16,96.46,.06,17.81,.13,35.62,.81,53.42,1.42,11.04,.38,17.4,6.02,18.47,17.05,.77,7.93,.51,15.97,.55,23.96,.07,13.33,.09,26.66,0,39.99-.18,27.64-.43,55.28-.66,82.91,0,.5,0,1-.02,1.5-.67,17.21-9.42,22.74-24.44,14.73-43.9-23.39-87.6-47.15-131.45-70.64-42.53-22.78-85.11-45.46-127.73-68.06-13.66-7.24-27.55-14.07-41.29-21.16-2.35-1.22-4.7-2.6-6.72-4.29-4.89-4.11-5.05-10.57,.31-13.94,4.05-2.55,9.09-4.99,13.68-4.98,47.14,.06,94.27,.63,141.41,1.06,2.67,.02,5.33,0,8,0,0,.12,0,.25,0,.37Z"/>
  <path class="cls-1" d="M156.16,628c-17.82,0-35.63-.06-53.45,.02-10.16,.04-20.31,.26-30.47,.48-13.23,.28-19.42-8.25-14.55-20.68,1.99-5.07,4.79-9.87,7.59-14.58,32.13-54.08,64.32-108.13,96.52-162.17,19.08-32.03,38.2-64.04,57.3-96.06,.51-.86,.85-2.02,1.61-2.49,2.22-1.37,4.89-3.74,6.84-3.31,2.03,.45,4.45,3.52,4.92,5.81,1.77,8.63,2.95,17.39,4.13,26.13,7.32,54.1,14.64,108.2,21.83,162.32,3.18,23.93,6.1,47.89,8.99,71.85,2.2,18.25-9.37,30.89-28.35,31.19-15.82,.25-31.64,.51-47.46,.65-11.81,.1-23.63,.02-35.45,.02,0,.28,0,.56,0,.83Z"/>
  <path class="cls-1" d="M646.7,656.83c32.49,0,64.98,0,97.48,0,1.33,0,2.67-.03,4,.01,5.9,.16,6.78,1.49,4.26,7.03-4.06,8.93-8.3,17.78-12.43,26.69-28.79,62.18-57.56,124.36-86.4,186.51-1.24,2.67-2.96,5.24-4.93,7.43-3.47,3.84-6.58,3.13-8.81-1.59-11.72-24.81-23.34-49.67-35.21-74.41-20.73-43.19-41.71-86.26-62.3-129.5-2.21-4.65-3.19-10.12-3.67-15.31-.52-5.71,1.13-6.85,7.04-6.86,33.66-.01,67.32,0,100.97,0Z"/>
  <path class="cls-1" d="M858.33,623.51c-18.32,0-36.65-.15-54.97,.08-6,.07-9.9-2.05-12.98-7.29-33.1-56.39-66.37-112.68-99.56-169.02-1.35-2.28-2.58-4.67-3.53-7.14-2.92-7.58,.12-12.07,8.25-12.12,12.33-.08,24.65-.02,36.98-.02,8.83,0,17.66,.08,26.49-.02,10.17-.12,18.41,3.84,24.97,11.47,38.9,45.16,77.78,90.34,116.7,135.48,8.48,9.83,17.09,19.55,25.64,29.32,2.67,3.05,5.32,6.08,3.63,10.65-1.78,4.82-5.13,7.81-10.23,8.33-3.78,.39-7.61,.26-11.42,.26-16.66,.02-33.32,0-49.97,0Z"/>
  <path class="cls-1" d="M424.19,623.51c-18.17,0-36.33,.04-54.5-.01-9.74-.03-11.53-2.2-8.12-11.3,1.71-4.56,4.45-8.99,7.63-12.69,46.19-53.64,92.57-107.13,138.83-160.71,6.16-7.13,13.56-10.87,23.08-10.84,21.83,.09,43.65-.09,65.48-.11,8.09,0,9.01,1.63,4.9,8.63-34.59,59.02-69.23,118.02-103.76,177.08-4.13,7.06-10.04,10.31-18.06,10.29-18.49-.04-36.99-.01-55.48-.01,0-.11,0-.22,0-.33Z"/>
  <path class="cls-1" d="M642.6,628c-31.83,0-63.66,0-95.49,0-1.17,0-2.33,.02-3.5,0-7.02-.18-8.62-2.49-5.25-8.64,7.5-13.73,15.33-27.28,23.01-40.91,25.82-45.81,51.63-91.64,77.5-137.42,1.56-2.76,3.7-5.2,5.57-7.79,1.93,2.51,4.15,4.85,5.74,7.56,33.18,56.37,66.29,112.78,99.42,169.19,.51,.86,1.02,1.72,1.57,2.55,5.1,7.64,1.42,14.94-8.09,15.52-5.98,.37-11.99,.11-17.99,.11-27.49,0-54.99,0-82.49,0,0-.06,0-.11,0-.17Z"/>
  <path class="cls-1" d="M999.54,201.08c-.16,10.92-8.32,16.05-16.38,11.78-86.42-45.84-172.81-91.72-259.21-137.59-1.47-.78-2.92-1.61-4.27-2.57-4-2.86-3.86-3.69,.1-6.79,1.03-.81,1.8-2.67,1.75-4.01-.15-3.71,1.38-5.13,4.99-5.07,42.79,.7,85.58,1.48,128.38,1.93,17.65,.19,35.3-.52,52.95-.54,13.33-.01,26.02,2.55,35.56,12.84,3.32,3.59,6.25,7.9,8.14,12.4,15.1,36.04,29.93,72.19,44.78,108.33,1.44,3.51,2.49,7.17,3.22,9.3Z"/>
  <path class="cls-1" d="M474.16,1235.83c-30.81,0-61.63,.19-92.44-.07-20.94-.18-36.94-11.42-44.04-32.96-11.35-34.44-27.27-66.78-42.93-99.29-1.28-2.66-2.77-5.75-2.51-8.49,.33-3.52,1.49-7.8,3.89-10,1.66-1.52,6.51-1.05,9.12,.21,12.87,6.24,25.54,12.91,38.14,19.68,75.9,40.83,151.76,81.73,227.63,122.61,1.17,.63,2.41,1.2,3.42,2.03,3.22,2.65,2.6,6.43-1.45,7.6-2.5,.72-5.25,.8-7.9,.8-30.32,.05-60.63,.03-90.95,.03v-2.17Z"/>
  <path class="cls-1" d="M909.33,1228.72c-15.37,.84-30.73,1.84-46.11,2.47-26.94,1.11-53.89,1.97-80.83,2.99-12.3,.47-24.6,1.08-36.9,1.61-1.33,.06-2.88,.46-3.95-.07-2.04-1.02-4.98-2.32-5.36-4-.38-1.67,1.46-4.64,3.17-5.81,3.81-2.61,8.23-4.32,12.26-6.64,78.27-45.13,156.51-90.32,234.82-135.38,5.44-3.13,11.25-5.84,17.2-7.8,2.9-.95,7.2-.78,9.65,.79,3.73,2.4,2.5,6.83,1.06,10.51-7.62,19.52-15.22,39.05-22.97,58.51-6.83,17.14-13.87,34.2-20.77,51.31-8.95,22.18-23.34,31.94-47.23,31.95-4.66,0-9.33,0-13.99,0,0-.15-.02-.3-.03-.45Z"/>
  <path class="cls-1" d="M280.3,208.95c.77-2.49,1.74-6.37,3.17-10.07,13.47-34.91,27.04-69.78,40.55-104.67,8.36-21.6,25.11-29.22,47.14-29.82,55.08-1.51,110.14-3.64,165.21-5.51,4.82-.16,9.68-.59,14.46-.21,2.28,.18,4.42,2,6.62,3.08-1.17,2.19-1.78,5.22-3.61,6.43-6.79,4.49-13.92,8.48-21.02,12.49-76.64,43.32-153.28,86.62-229.96,129.87-4.34,2.45-8.8,4.75-13.4,6.63-5.71,2.34-9.5-.62-9.17-8.21Z"/>
  <path class="cls-1" d="M1234.35,552.16c-1.75-2.9-3.34-5.56-4.95-8.21-48.78-80.37-97.55-160.74-146.37-241.09-1.97-3.25-2.24-6.06,.38-9.09,1.4-1.62,2.32-3.64,3.56-5.41,3.08-4.41,7.11-6,12.55-4.88,26.38,5.45,52.75,11.01,79.22,15.97,18.95,3.55,30.91,14.69,34.46,33.59,3,15.99,6.35,31.92,8.76,48,1.3,8.67,.37,17.67,1.47,26.39,1.64,13.02,4.39,25.89,6.31,38.88,4.1,27.65,7.97,55.34,11.95,83.01,.26,1.81,.48,3.66,1.02,5.39,2.47,7.93-.99,13.13-8.36,17.45Z"/>
  <path class="cls-1" d="M208.67,999.81c.06,8.31-6.23,13.14-13.61,11.66-19.24-3.87-38.44-7.98-57.67-11.89-6.84-1.39-13.72-2.69-20.63-3.61-21.41-2.82-34.64-16.11-37.89-38.78-7.83-54.52-15.49-109.07-23.34-163.58-1.9-13.17-4.27-26.28-6.42-39.41-.13-.82-.58-1.77-.32-2.44,.75-1.97,1.79-3.83,2.72-5.73,1.73,.96,4.03,1.51,5.09,2.97,2.93,4.02,5.36,8.41,7.96,12.68,43.85,71.89,87.68,143.79,131.54,215.68,3.12,5.11,6.56,10.03,9.55,15.22,1.54,2.68,2.41,5.74,3.03,7.24Z"/>
  <path class="cls-1" d="M1102.7,1000.53c-1.03-.1-3.23-.07-5.31-.57-4.54-1.09-6.61-5.31-4.94-9.66,.36-.92,.84-1.81,1.33-2.67,22.07-37.98,44.27-75.89,66.21-113.94,25.27-43.83,50.32-87.79,75.51-131.67,1.49-2.59,3.1-5.19,5.11-7.36,1.16-1.25,4.01-2.7,4.74-2.18,1.42,1.03,2.76,3.46,2.6,5.17-1.03,11.1-2.42,22.17-3.8,33.24-4.83,38.81-9.69,77.62-14.57,116.43-2.59,20.65-4.84,41.34-7.97,61.91-2.15,14.15-10.44,24.52-24.35,28.29-29.52,8.02-59.29,15.12-88.97,22.55-1.43,.36-2.97,.26-5.6,.46Z"/>
  <path class="cls-1" d="M46.92,557.54c2.18-18.77,4.26-36.12,6.18-53.49,4.61-41.67,9.02-83.37,13.79-125.03,1.44-12.54,3.3-25.08,5.88-37.43,2.98-14.22,11.99-23.92,26.08-27.42,28.4-7.07,56.96-13.47,85.5-19.97,4.22-.96,8.88-1.32,11.84,2.97,3.19,4.63,1.61,9.21-.88,13.59-26.69,47.01-53.36,94.04-80.09,141.03-19.66,34.55-39.4,69.05-59.11,103.57-.58,1.01-1.04,2.17-1.87,2.93-1.57,1.45-3.37,2.66-5.07,3.97-.92-1.92-1.85-3.85-2.27-4.72Z"/>
  <path class="cls-1" d="M818.65,299.83c33.66,0,67.32,0,100.98,0,1.5,0,3.01-.07,4.5,.07,6.9,.62,9.45,5.21,5.1,10.4-3.65,4.36-8.05,8.65-13.02,11.27-41.65,21.93-83.51,43.46-125.3,65.12-6.22,3.22-9.87,2.89-14.95-1.86-22.24-20.84-44.42-41.72-66.63-62.59-.85-.8-1.63-1.69-2.57-2.36-3.58-2.56-6.39-5.33-4.73-10.37,2.09-6.31,5.58-9.71,11.68-9.89,7.15-.21,14.32,.2,21.47,.21,27.83,.03,55.65,.01,83.48,.01Z"/>
  <path class="cls-1" d="M478.16,302.36c30.8,0,61.61-.02,92.41,.02,4.49,0,8.98,.34,13.47,.44,3.21,.07,7.2-.18,7.62,3.77,.27,2.56-1.24,6.12-3.16,7.98-15.22,14.68-30.73,29.05-46.15,43.51-8.62,8.09-17.24,16.18-25.85,24.28-4.54,4.27-8.43,5.09-14.1,2.2-17.33-8.84-34.6-17.82-51.83-26.86-2.64-1.39-4.84-2.45-7.85-.61-1.13,.69-3.53,.09-4.98-.65-22.75-11.76-45.46-23.61-68.14-35.51-5.06-2.66-7.59-10.13-4.53-14.89,1.13-1.77,4.37-3.01,6.68-3.07,20.14-.51,40.29-.77,60.43-.94,15.32-.13,30.65-.03,45.98-.03,0,.12,0,.24,0,.36Z"/>
  <path class="cls-1" d="M647,399c-28,0-56-.02-83.99,.02-3.27,0-6.52,.12-7.98-3.58-1.52-3.88,.33-6.78,3.12-9.24,24.47-21.59,48.98-43.14,73.43-64.75,1.86-1.64,3.47-3.58,5.1-5.47,6.73-7.78,12.41-8.31,20.04-1.53,16.06,14.28,32.06,28.62,48.01,43,10.39,9.37,20.69,18.83,30.95,28.33,1.54,1.43,3.13,3.18,3.83,5.09,1.7,4.69-1.55,8.09-7.52,8.1-28.33,.02-56.66,.01-84.99,.01Z"/>
  <path class="cls-1" d="M1161.81,1020.65c1.86,1.14,5.71,2.24,6.12,4.1,.49,2.19-1.4,5.65-3.29,7.51-26.74,26.25-53.61,52.36-80.54,78.41-17.59,17.01-35.27,33.94-53.1,50.71-2.65,2.5-6.17,4.74-9.64,5.55-5.43,1.27-7.34-1.53-5.44-6.9,3.1-8.77,6.15-17.56,9.48-26.24,8.69-22.66,17.31-45.36,26.37-67.87,5.07-12.6,14.61-21.3,27.62-24.9,22.26-6.15,44.76-11.41,67.17-16.99,4.66-1.16,9.37-2.07,15.26-3.36Z"/>
  <path class="cls-1" d="M1151.69,258.82c-11.76-2.03-24.05-4.15-36.34-6.27-3.28-.57-6.57-1.08-9.84-1.69-3.29-.62-5.83,.04-8.64,2.36-1.88,1.55-5.54,1.78-8.23,1.4-32.55-4.71-50.23-21.22-56.65-54.11-5.14-26.35-16.36-50.45-25.94-75.19-.36-.93-1.23-1.8-1.22-2.7,.01-1.67,.49-3.34,.78-5.02,1.65,.29,3.75,.03,4.88,.95,5.66,4.64,11.16,9.5,16.55,14.45,41.18,37.86,82.33,75.76,123.44,113.7,2.04,1.89,3.94,4.1,5.31,6.51,2.09,3.68,.68,5.65-4.09,5.62Z"/>
  <path class="cls-1" d="M123.61,271.22c1.93-3.26,3.28-7.12,5.9-9.69,23.5-23.13,47.24-46.01,70.87-69.02,20.29-19.75,40.5-39.57,60.77-59.34,2.02-1.97,4.01-4.11,6.39-5.55,1.61-.97,3.88-.83,5.86-1.19,.3,1.99,1.32,4.22,.76,5.93-2.24,6.96-4.86,13.8-7.53,20.61-9.17,23.38-18.47,46.71-27.64,70.08-9.49,24.2-26.65,38.39-52.63,42.72-17.52,2.92-34.73,7.68-52.08,11.62-.65,.15-1.27,.41-1.92,.55-6.21,1.33-7.5,.3-7.51-5.98l-1.24-.75Z"/>
  <path class="cls-1" d="M780.91,1017c-28.12,0-56.23,.03-84.35-.04-3.81,0-7.7-.16-11.4-.97-1.96-.43-4.43-2.08-5.11-3.8-.56-1.4,.66-4.29,2-5.55,10.42-9.8,21.06-19.36,31.62-29,4.79-4.37,9.68-8.65,14.32-13.18,5.55-5.42,11.99-6.96,19.28-4.82,44.32,13.03,88.63,26.09,132.9,39.26,2.42,.72,5.1,2.04,6.64,3.91,2.67,3.26,.57,8.45-3.75,9.37-4.86,1.04-9.87,1.84-14.81,1.87-29.11,.17-58.23,.08-87.35,.08,0,.95,0,1.89,0,2.84Z"/>
  <path class="cls-1" d="M143.68,1032.1c10.01,2.08,18.83,3.82,27.6,5.76,15.26,3.37,30.49,6.95,45.76,10.28,16.85,3.68,28.07,14.09,34.75,29.47,12.18,28.07,24,56.29,35.97,84.46,1.1,2.6,2.51,5.15,3.06,7.87,.33,1.65-.19,4.24-1.33,5.19-1.22,1.02-3.8,1.16-5.48,.66-1.78-.53-3.29-2.17-4.76-3.51-45.12-41.22-90.23-82.46-135.32-123.71-1.59-1.46-3.43-2.9-4.37-4.75-1.26-2.48-3.05-5.88-2.22-7.89,.84-2.04,4.6-2.87,6.35-3.83Z"/>
  <path class="cls-1" d="M563.11,1016c-9.43-.47-23.05-1.43-36.68-1.72-12.13-.26-24.28,.46-36.42,.29-18.62-.26-37.24-.93-55.86-1.41-7.95-.21-15.93-.12-23.84-.78-2.1-.17-5.6-2.53-5.66-4.01-.11-2.54,1.51-5.58,3.29-7.62,1.37-1.56,4.06-2.12,6.27-2.76,44.2-12.86,88.43-25.65,132.63-38.53,6.34-1.85,11.65-.72,16.55,3.79,14.21,13.06,28.57,25.97,42.86,38.95,2.8,2.55,5.14,5.29,3.67,9.53-1.49,4.31-5.17,4.22-8.65,4.24-11.32,.08-22.64,.03-38.16,.03Z"/>
  <path class="cls-1" d="M502.96,34.09l16.78-5.24c-.03-.53-.06-1.07-.09-1.6l-15.54-1.46c-.05-.4-.1-.8-.16-1.2,8.14-2,16.26-4.06,24.42-5.99,22.8-5.4,45.57-10.97,68.45-15.98,5.54-1.21,11.55-1.04,17.26-.55,5.91,.51,7.75,4.07,6.25,9.95-2.84,11.13-10.96,18.1-23.47,18.96-23.07,1.59-46.17,2.72-69.26,4.02-6.31,.36-12.62,.75-18.94,.96-1.86,.06-3.74-.43-5.6-.67-.04-.4-.08-.8-.11-1.19Z"/>
  <path class="cls-1" d="M1269.37,506.72c1,2.42,1.82,3.86,2.19,5.41,6.95,29.26,13.88,58.52,20.72,87.81,2.75,11.76-.4,20.24-8.85,24.61-5.73,2.96-10.74,2.02-13.52-3.73-2.4-4.98-4.56-10.55-4.86-15.98-1.21-21.42-1.61-42.88-2.4-64.32-.12-3.31-.69-6.61-.98-9.91-.74-8.55,2.32-15.9,7.69-23.89Z"/>
  <path class="cls-1" d="M1264.52,773.32c0-23.79-.07-47.58,.04-71.37,.04-8.13-.01-16.32,1-24.36,1.25-9.95,8.03-16.53,15.86-22.03,3.71-2.61,6.66-.96,8.97,2.2,3.95,5.39,4.04,11.53,2.77,17.71-5.93,28.85-11.97,57.67-17.96,86.51-.27,1.3-.54,2.61-.75,3.92-.55,3.58-.98,7.16-6.18,6.27-.65-.11-1.52,1.05-2.28,1.62-.49-.16-.98-.32-1.46-.48Z"/>
  <path class="cls-1" d="M25.05,790.98c-.78-1.54-1.9-3-2.29-4.64-7.21-30.4-14.58-60.77-21.24-91.29-1.25-5.73-.38-12.29,1-18.12,1.75-7.39,10.07-8.74,15.16-2.98,4.87,5.52,6.51,12.33,6.78,19.41,1.17,30.24,2.18,60.49,3.17,90.75,.07,2.2-.58,4.42-.89,6.62l-1.69,.25Z"/>
  <path class="cls-1" d="M24.43,519.58c0,4.5,.05,9,0,13.5-.3,21.46-.72,42.91-.91,64.37-.12,13.4-.6,26.74-7.45,38.73-1.37,2.4-4.31,4.89-6.89,5.37-3.8,.71-6.9-2.33-7.47-5.97-.98-6.29-2.43-12.99-1.25-19.04,5.97-30.52,12.71-60.89,19.27-91.3,.45-2.08,1.62-4.01,2.45-6.01l2.26,.35Z"/>
</svg>