<svg width="14" height="14" viewBox="0 0 14 14" fill="none" xmlns="http://www.w3.org/2000/svg">
<path d="M5.35138 4.49244L5.3514 4.49246L6.51831 5.65827L6.55377 5.62302L6.51843 5.65839L6.5184 5.65836C6.56856 5.70878 6.63666 5.73725 6.70778 5.73755H6.70795C6.74341 5.73758 6.77853 5.73059 6.81128 5.71698C6.844 5.70339 6.87371 5.68346 6.8987 5.65833C6.89872 5.65831 6.89874 5.65829 6.89876 5.65827L8.64786 3.90917C8.67437 3.88484 8.69572 3.85543 8.71066 3.82269C8.72576 3.78956 8.73398 3.75371 8.73481 3.71732C8.73564 3.68092 8.72907 3.64473 8.71549 3.61096C8.70191 3.57718 8.68162 3.54651 8.65583 3.52081C8.63004 3.49511 8.5993 3.47492 8.56547 3.46147C8.53164 3.44801 8.49544 3.44157 8.45904 3.44253C8.42265 3.44348 8.38683 3.45183 8.35376 3.46705C8.3211 3.48208 8.29179 3.50352 8.26756 3.53008L6.708 5.08857L5.73162 4.1122C5.70666 4.08723 5.67702 4.06742 5.6444 4.05391C5.61178 4.0404 5.57681 4.03345 5.5415 4.03345C5.5062 4.03345 5.47123 4.0404 5.43861 4.05391C5.40599 4.06742 5.37635 4.08723 5.35138 4.1122C5.32642 4.13716 5.30661 4.1668 5.2931 4.19943C5.27959 4.23205 5.27263 4.26701 5.27263 4.30232C5.27263 4.33763 5.27959 4.37259 5.2931 4.40521C5.30661 4.43783 5.32642 4.46747 5.35138 4.49244ZM6.70799 5.68755C6.73685 5.68758 6.76544 5.68189 6.79209 5.67081C6.81875 5.65973 6.84295 5.64349 6.8633 5.62302L6.70799 5.68755Z" fill="#CACACC" stroke="#CACACC" stroke-width="0.1"/>
<path d="M10.1125 4.7625H11.5923C11.6493 4.75928 11.7059 4.77433 11.7539 4.80549C11.8022 4.83692 11.8392 4.88308 11.8593 4.93713L10.1125 4.7625ZM10.1125 4.7625V2.40625C10.1125 2.33497 10.0842 2.26662 10.0338 2.21622C9.98339 2.16581 9.91503 2.1375 9.84375 2.1375H4.15625C4.08497 2.1375 4.01662 2.16581 3.96621 2.21622C3.91581 2.26662 3.8875 2.33497 3.8875 2.40625V4.7625H10.1125ZM13.1718 8.43713L11.8594 4.93729L2.28177 4.85164C2.24522 4.87704 2.2173 4.91299 2.20172 4.95469L2.1549 4.93713L2.15488 4.93719L0.842402 8.43713L0.841072 8.43663L0.839597 8.44855C0.838953 8.45376 0.838675 8.459 0.838763 8.46424C0.837053 8.47049 0.835632 8.47682 0.834508 8.4832L0.834204 8.48315L0.833851 8.4887C0.833537 8.49364 0.83337 8.49858 0.833352 8.50353L0.832417 8.50504L0.825 8.5171V8.53125V11.1562C0.825 11.2275 0.853315 11.2959 0.903715 11.3463C0.954116 11.3967 1.02247 11.425 1.09375 11.425C1.16503 11.425 1.23338 11.3967 1.28378 11.3463C1.33419 11.2959 1.3625 11.2275 1.3625 11.1562V8.8H12.6375V11.1562C12.6375 11.2275 12.6658 11.2959 12.7162 11.3463C12.7666 11.3967 12.835 11.425 12.9062 11.425C12.9775 11.425 13.0459 11.3967 13.0963 11.3463C13.1467 11.2959 13.175 11.2275 13.175 11.1562V8.53125V8.53124V8.53123V8.53122V8.53121V8.53121V8.5312V8.53119V8.53118V8.53116V8.53115V8.53114V8.53112V8.53111V8.5311V8.53109V8.53109V8.53108V8.53107V8.53106V8.53105V8.53104V8.53103V8.53102V8.53101V8.531V8.53099V8.53098V8.53097V8.53096V8.53095V8.53094V8.53093V8.53092V8.53091V8.53089V8.53088V8.53087V8.53086V8.53084V8.53083V8.53082V8.53081V8.53079V8.53078V8.53077V8.53075V8.53074V8.53072V8.53071V8.53069V8.53068V8.53066V8.53065V8.53063V8.53062V8.5306V8.53059V8.53057V8.53056V8.53054V8.53052V8.53051V8.53049V8.53047V8.53046V8.53044V8.53042V8.5304V8.53039V8.53037V8.53035V8.53033V8.53031V8.53029V8.53028V8.53026V8.53024V8.53022V8.5302V8.53018V8.53016V8.53014V8.53012V8.5301V8.53008V8.53006V8.53004V8.53002V8.53V8.52998V8.52995V8.52993V8.52991V8.52989V8.52987V8.52985V8.52983V8.5298V8.52978V8.52976V8.52974V8.52971V8.52969V8.52967V8.52964V8.52962V8.5296V8.52957V8.52955V8.52953V8.5295V8.52948V8.52945V8.52943V8.5294V8.52938V8.52936V8.52933V8.5293V8.52928V8.52925V8.52923V8.5292V8.52918V8.52915V8.52913V8.5291V8.52907V8.52905V8.52902V8.529V8.52897V8.52894V8.52891V8.52889V8.52886V8.52883V8.52881V8.52878V8.52875V8.52872V8.5287V8.52867V8.52864V8.52861V8.52858V8.52855V8.52853V8.5285V8.52847V8.52844V8.52841V8.52838V8.52835V8.52832V8.5283V8.52827V8.52824V8.52821V8.52818V8.52815V8.52812V8.52809V8.52806V8.52803V8.528V8.52797V8.52794V8.5279V8.52787V8.52784V8.52781V8.52778V8.52775V8.52772V8.52769V8.52766V8.52763V8.52759V8.52756V8.52753V8.5275V8.52747V8.52743V8.5274V8.52737V8.52734V8.52731V8.52727V8.52724V8.52721V8.52718V8.52714V8.52711V8.52708V8.52705V8.52701V8.52698V8.52695V8.52691V8.52688V8.52685V8.52681V8.52678V8.52675V8.52671V8.52668V8.52665V8.52661V8.52658V8.52654V8.52651V8.52648V8.52644V8.52641V8.52637V8.52634V8.5263V8.52627V8.52624V8.5262V8.52617V8.52613V8.5261V8.52606V8.52603V8.52599V8.52596V8.52592V8.52589V8.52585V8.52582V8.52578V8.52575V8.52571V8.52568V8.52564V8.5256V8.52557V8.52553V8.5255V8.52546V8.52543V8.52539V8.52535V8.52532V8.52528V8.52525V8.52521V8.52518V8.52514V8.5251V8.52507V8.52503V8.525V8.52496V8.52492V8.52489V8.52485V8.52481V8.52478V8.52474V8.5247V8.52467V8.52463V8.5246V8.52456V8.52452V8.52449V8.52445V8.52441V8.52438V8.52434V8.5243V8.52427V8.52423V8.52419V8.52416V8.52412V8.52408V8.52404V8.52401V8.52397V8.52393V8.5239V8.52386V8.52382V8.52379V8.52375V8.52371V8.52367V8.52364V8.5236V8.52356V8.52353V8.52349V8.52345V8.52342V8.52338V8.52334V8.5233V8.52327V8.52323V8.52319V8.52316V8.52312V8.52308V8.52305V8.52301V8.52297V8.52293V8.5229V8.52286V8.52282V8.52279V8.52275V8.52271V8.52267V8.52264V8.5226V8.52256V8.52253V8.52249V8.52245V8.52242V8.52238V8.52234V8.52231V8.52227V8.52223V8.52219V8.52216V8.52212V8.52208V8.52205V8.52201V8.52197V8.52194V8.5219V8.52186V8.52183V8.52179V8.52175V8.52172V8.52168V8.52164V8.52161V8.52157V8.52153V8.5215V8.52146V8.52142V8.52139V8.52135V8.52132V8.52128V8.52124V8.52121V8.52117V8.52113V8.5211V8.52106V8.52103V8.52099V8.52096V8.52092V8.52088V8.52085V8.52081V8.52078V8.52074V8.5207V8.52067V8.52063V8.5206V8.52056V8.52053V8.52049V8.52046V8.52042V8.52039V8.52035V8.52032V8.52028V8.52025V8.52021V8.52018V8.52014V8.52011V8.52007V8.52004V8.52V8.51997V8.51993V8.5199V8.51987V8.51983V8.5198V8.51976V8.51973V8.51969V8.51966V8.51963V8.51959V8.51956V8.51953V8.51949V8.51946V8.51942V8.51939V8.51936V8.51932V8.51929V8.51926V8.51923V8.51919V8.51916V8.51913V8.51909V8.51906V8.51903V8.519V8.51896V8.51893V8.5189V8.51887V8.51883V8.5188V8.51877V8.51874V8.51871V8.51867V8.51864V8.51861V8.51858V8.51855V8.51853C13.1755 8.50968 13.1755 8.50081 13.1751 8.49196C13.1755 8.48498 13.1755 8.47798 13.1751 8.47099C13.1757 8.46351 13.1755 8.456 13.1746 8.44855L13.176 8.44837L13.1718 8.43713ZM4.425 2.675H9.575V6.5125H4.425V2.675ZM1.48199 8.2625L2.59293 5.3H3.8875V6.5125H3.28125C3.20997 6.5125 3.14162 6.54081 3.09122 6.59121C3.04081 6.64162 3.0125 6.70997 3.0125 6.78125C3.0125 6.85253 3.04081 6.92088 3.09122 6.97129C3.14162 7.02169 3.20997 7.05 3.28125 7.05H10.7188C10.79 7.05 10.8584 7.02169 10.9088 6.97129C10.9592 6.92088 10.9875 6.85253 10.9875 6.78125C10.9875 6.70997 10.9592 6.64162 10.9088 6.59121C10.8584 6.54081 10.79 6.5125 10.7188 6.5125H10.1125V5.3H11.4071L12.518 8.2625H1.48199Z" fill="#CACACC" stroke="#CACACC" stroke-width="0.1"/>
</svg>
