<?xml version="1.0" encoding="UTF-8"?>
<svg xmlns="http://www.w3.org/2000/svg" xmlns:xlink="http://www.w3.org/1999/xlink" viewBox="0 0 162.77 163.03">
  <defs>
    <style>
      .cls-1 {
        fill: url(#linear-gradient);
      }

      .cls-2 {
        fill: #1b46cc;
      }

      .cls-3 {
        fill: url(#linear-gradient-8);
      }

      .cls-4 {
        fill: url(#linear-gradient-9);
      }

      .cls-5 {
        fill: url(#linear-gradient-3);
      }

      .cls-6 {
        fill: url(#linear-gradient-4);
      }

      .cls-7 {
        fill: url(#linear-gradient-2);
      }

      .cls-8 {
        fill: url(#linear-gradient-6);
      }

      .cls-9 {
        fill: url(#linear-gradient-7);
      }

      .cls-10 {
        fill: url(#linear-gradient-5);
      }

      .cls-11 {
        mix-blend-mode: screen;
        opacity: .4;
      }

      .cls-12 {
        fill: url(#linear-gradient-59);
      }

      .cls-13 {
        fill: url(#linear-gradient-57);
      }

      .cls-14 {
        fill: url(#linear-gradient-58);
      }

      .cls-15 {
        fill: url(#linear-gradient-55);
      }

      .cls-16 {
        fill: url(#linear-gradient-56);
      }

      .cls-17 {
        fill: url(#linear-gradient-53);
      }

      .cls-18 {
        fill: url(#linear-gradient-54);
      }

      .cls-19 {
        fill: url(#linear-gradient-51);
      }

      .cls-20 {
        fill: url(#linear-gradient-52);
      }

      .cls-21 {
        fill: url(#linear-gradient-50);
      }

      .cls-22 {
        fill: url(#linear-gradient-77);
      }

      .cls-23 {
        fill: url(#linear-gradient-78);
      }

      .cls-24 {
        fill: url(#linear-gradient-79);
      }

      .cls-25 {
        fill: url(#linear-gradient-74);
      }

      .cls-26 {
        fill: url(#linear-gradient-75);
      }

      .cls-27 {
        fill: url(#linear-gradient-76);
      }

      .cls-28 {
        fill: url(#linear-gradient-70);
      }

      .cls-29 {
        fill: url(#linear-gradient-71);
      }

      .cls-30 {
        fill: url(#linear-gradient-72);
      }

      .cls-31 {
        fill: url(#linear-gradient-73);
      }

      .cls-32 {
        fill: url(#linear-gradient-68);
      }

      .cls-33 {
        fill: url(#linear-gradient-67);
      }

      .cls-34 {
        fill: url(#linear-gradient-69);
      }

      .cls-35 {
        fill: url(#linear-gradient-64);
      }

      .cls-36 {
        fill: url(#linear-gradient-63);
      }

      .cls-37 {
        fill: url(#linear-gradient-66);
      }

      .cls-38 {
        fill: url(#linear-gradient-65);
      }

      .cls-39 {
        fill: url(#linear-gradient-60);
      }

      .cls-40 {
        fill: url(#linear-gradient-62);
      }

      .cls-41 {
        fill: url(#linear-gradient-61);
      }

      .cls-42 {
        fill: url(#linear-gradient-81);
      }

      .cls-43 {
        fill: url(#linear-gradient-80);
      }

      .cls-44 {
        fill: url(#linear-gradient-41);
      }

      .cls-45 {
        fill: url(#linear-gradient-40);
      }

      .cls-46 {
        fill: url(#linear-gradient-43);
      }

      .cls-47 {
        fill: url(#linear-gradient-42);
      }

      .cls-48 {
        fill: url(#linear-gradient-45);
      }

      .cls-49 {
        fill: url(#linear-gradient-46);
      }

      .cls-50 {
        fill: url(#linear-gradient-44);
      }

      .cls-51 {
        fill: url(#linear-gradient-49);
      }

      .cls-52 {
        fill: url(#linear-gradient-47);
      }

      .cls-53 {
        fill: url(#linear-gradient-48);
      }

      .cls-54 {
        fill: url(#linear-gradient-14);
      }

      .cls-55 {
        fill: url(#linear-gradient-18);
      }

      .cls-56 {
        fill: url(#linear-gradient-22);
      }

      .cls-57 {
        fill: url(#linear-gradient-20);
      }

      .cls-58 {
        fill: url(#linear-gradient-21);
      }

      .cls-59 {
        fill: url(#linear-gradient-23);
      }

      .cls-60 {
        fill: url(#linear-gradient-15);
      }

      .cls-61 {
        fill: url(#linear-gradient-19);
      }

      .cls-62 {
        fill: url(#linear-gradient-16);
      }

      .cls-63 {
        fill: url(#linear-gradient-17);
      }

      .cls-64 {
        fill: url(#linear-gradient-13);
      }

      .cls-65 {
        fill: url(#linear-gradient-12);
      }

      .cls-66 {
        fill: url(#linear-gradient-10);
      }

      .cls-67 {
        fill: url(#linear-gradient-11);
      }

      .cls-68 {
        fill: url(#linear-gradient-27);
      }

      .cls-69 {
        fill: url(#linear-gradient-24);
      }

      .cls-70 {
        fill: url(#linear-gradient-26);
      }

      .cls-71 {
        fill: url(#linear-gradient-38);
      }

      .cls-72 {
        fill: url(#linear-gradient-35);
      }

      .cls-73 {
        fill: url(#linear-gradient-37);
      }

      .cls-74 {
        fill: url(#linear-gradient-34);
      }

      .cls-75 {
        fill: url(#linear-gradient-39);
      }

      .cls-76 {
        fill: url(#linear-gradient-36);
      }

      .cls-77 {
        fill: url(#linear-gradient-25);
      }

      .cls-78 {
        fill: url(#linear-gradient-28);
      }

      .cls-79 {
        fill: url(#linear-gradient-29);
      }

      .cls-80 {
        fill: url(#linear-gradient-33);
      }

      .cls-81 {
        fill: url(#linear-gradient-30);
      }

      .cls-82 {
        fill: url(#linear-gradient-32);
      }

      .cls-83 {
        fill: url(#linear-gradient-31);
      }

      .cls-84 {
        isolation: isolate;
      }

      .cls-85 {
        mix-blend-mode: multiply;
        opacity: .5;
      }
    </style>
    <linearGradient id="linear-gradient" x1="44.41" y1="146.77" x2="117.99" y2="17" gradientUnits="userSpaceOnUse">
      <stop offset="0" stop-color="#0b1054"/>
      <stop offset=".12" stop-color="#0b156f"/>
      <stop offset=".37" stop-color="#0b23b6"/>
      <stop offset=".44" stop-color="#0c28cc"/>
      <stop offset="1" stop-color="#02b6f3"/>
    </linearGradient>
    <linearGradient id="linear-gradient-2" x1="-7.43" y1="111.76" x2="95.96" y2="-3.69" gradientUnits="userSpaceOnUse">
      <stop offset="0" stop-color="#483eda"/>
      <stop offset="1" stop-color="#14d8f9"/>
    </linearGradient>
    <linearGradient id="linear-gradient-3" x1="9.39" y1="126.82" x2="112.77" y2="11.36" xlink:href="#linear-gradient-2"/>
    <linearGradient id="linear-gradient-4" x1="28.75" y1="144.16" x2="132.14" y2="28.71" xlink:href="#linear-gradient-2"/>
    <linearGradient id="linear-gradient-5" x1="48.72" y1="162.04" x2="152.1" y2="46.58" xlink:href="#linear-gradient-2"/>
    <linearGradient id="linear-gradient-6" x1="58.9" y1="154.53" x2="153.56" y2="48.82" xlink:href="#linear-gradient-2"/>
    <linearGradient id="linear-gradient-7" x1="11.04" y1="127.81" x2="114.02" y2="12.81" xlink:href="#linear-gradient-2"/>
    <linearGradient id="linear-gradient-8" x1="30.6" y1="119.88" x2="110.89" y2="68.09" gradientUnits="userSpaceOnUse">
      <stop offset="0" stop-color="#6297ff"/>
      <stop offset="1" stop-color="#daf2ff"/>
    </linearGradient>
    <linearGradient id="linear-gradient-9" x1="45.65" y1="140.78" x2="139.34" y2="36.16" xlink:href="#linear-gradient-2"/>
    <linearGradient id="linear-gradient-10" x1="13.57" y1="130.57" x2="116.96" y2="15.11" xlink:href="#linear-gradient-2"/>
    <linearGradient id="linear-gradient-11" x1="66.05" y1="177.56" x2="169.44" y2="62.1" xlink:href="#linear-gradient-2"/>
    <linearGradient id="linear-gradient-12" x1="70.95" y1="181.95" x2="174.34" y2="66.49" xlink:href="#linear-gradient-2"/>
    <linearGradient id="linear-gradient-13" x1="75.56" y1="186.07" x2="178.94" y2="70.62" xlink:href="#linear-gradient-2"/>
    <linearGradient id="linear-gradient-14" x1="83.82" y1="193.47" x2="187.21" y2="78.02" xlink:href="#linear-gradient-2"/>
    <linearGradient id="linear-gradient-15" x1="79.93" y1="189.99" x2="183.32" y2="74.54" xlink:href="#linear-gradient-2"/>
    <linearGradient id="linear-gradient-16" x1="66.19" y1="177.69" x2="169.58" y2="62.23" xlink:href="#linear-gradient-2"/>
    <linearGradient id="linear-gradient-17" x1="43.04" y1="156.58" x2="146.02" y2="41.58" xlink:href="#linear-gradient-2"/>
    <linearGradient id="linear-gradient-18" x1="42.08" y1="167.75" x2="154.31" y2="53.45" xlink:href="#linear-gradient-2"/>
    <linearGradient id="linear-gradient-19" x1="-4.24" y1="122.27" x2="107.99" y2="7.97" xlink:href="#linear-gradient-2"/>
    <linearGradient id="linear-gradient-20" x1="41.57" y1="163.69" x2="153.25" y2="38.97" xlink:href="#linear-gradient-2"/>
    <linearGradient id="linear-gradient-21" x1="62.64" y1="183.09" x2="175.07" y2="57.53" xlink:href="#linear-gradient-2"/>
    <linearGradient id="linear-gradient-22" x1="70" y1="181.1" x2="173.39" y2="65.64" xlink:href="#linear-gradient-2"/>
    <linearGradient id="linear-gradient-23" x1="74.96" y1="185.54" x2="178.35" y2="70.09" xlink:href="#linear-gradient-2"/>
    <linearGradient id="linear-gradient-24" x1="-17.29" y1="102.93" x2="86.1" y2="-12.52" xlink:href="#linear-gradient-2"/>
    <linearGradient id="linear-gradient-25" x1="-21.9" y1="98.8" x2="81.49" y2="-16.65" xlink:href="#linear-gradient-2"/>
    <linearGradient id="linear-gradient-26" x1="-30.16" y1="91.4" x2="73.22" y2="-24.05" xlink:href="#linear-gradient-2"/>
    <linearGradient id="linear-gradient-27" x1="-26.28" y1="94.88" x2="77.1" y2="-20.58" xlink:href="#linear-gradient-2"/>
    <linearGradient id="linear-gradient-28" x1="-12.54" y1="107.18" x2="90.85" y2="-8.27" xlink:href="#linear-gradient-2"/>
    <linearGradient id="linear-gradient-29" x1="3.33" y1="130.96" x2="115.01" y2="6.24" xlink:href="#linear-gradient-2"/>
    <linearGradient id="linear-gradient-30" x1="-18.54" y1="112.44" x2="93.89" y2="-13.11" xlink:href="#linear-gradient-2"/>
    <linearGradient id="linear-gradient-31" x1="-16.35" y1="103.78" x2="87.04" y2="-11.68" xlink:href="#linear-gradient-2"/>
    <linearGradient id="linear-gradient-32" x1="-21.31" y1="99.33" x2="82.08" y2="-16.12" xlink:href="#linear-gradient-2"/>
    <linearGradient id="linear-gradient-33" x1="61.08" y1="173.11" x2="164.47" y2="57.66" xlink:href="#linear-gradient-2"/>
    <linearGradient id="linear-gradient-34" x1="44.27" y1="158.06" x2="147.66" y2="42.6" xlink:href="#linear-gradient-2"/>
    <linearGradient id="linear-gradient-35" x1="24.9" y1="140.71" x2="128.29" y2="25.26" xlink:href="#linear-gradient-2"/>
    <linearGradient id="linear-gradient-36" x1="4.94" y1="122.83" x2="108.32" y2="7.38" xlink:href="#linear-gradient-2"/>
    <linearGradient id="linear-gradient-37" x1="3.96" y1="120.06" x2="98.63" y2="14.35" xlink:href="#linear-gradient-2"/>
    <linearGradient id="linear-gradient-38" x1="25.49" y1="111.95" x2="105.77" y2="60.16" xlink:href="#linear-gradient-8"/>
    <linearGradient id="linear-gradient-39" x1="18.24" y1="132.66" x2="111.93" y2="28.03" xlink:href="#linear-gradient-2"/>
    <linearGradient id="linear-gradient-40" x1="40.08" y1="154.31" x2="143.47" y2="38.85" xlink:href="#linear-gradient-2"/>
    <linearGradient id="linear-gradient-41" x1="-12.4" y1="107.31" x2="90.99" y2="-8.14" xlink:href="#linear-gradient-2"/>
    <linearGradient id="linear-gradient-42" x1="63.63" y1="185.29" x2="182.77" y2="45.82" xlink:href="#linear-gradient-2"/>
    <linearGradient id="linear-gradient-43" x1="46.93" y1="143.18" x2="145.33" y2="27.98" xlink:href="#linear-gradient-2"/>
    <linearGradient id="linear-gradient-44" x1="43.95" y1="158.06" x2="152.07" y2="31.49" xlink:href="#linear-gradient-2"/>
    <linearGradient id="linear-gradient-45" x1="41.95" y1="167.71" x2="154.1" y2="53.48" xlink:href="#linear-gradient-2"/>
    <linearGradient id="linear-gradient-46" x1="53.14" y1="139.1" x2="143.87" y2="32.89" xlink:href="#linear-gradient-2"/>
    <linearGradient id="linear-gradient-47" x1="-17.65" y1="115.24" x2="100.47" y2="-23.03" xlink:href="#linear-gradient-2"/>
    <linearGradient id="linear-gradient-48" x1="-18.47" y1="115.02" x2="98.8" y2="-22.27" xlink:href="#linear-gradient-2"/>
    <linearGradient id="linear-gradient-49" x1="77.61" y1="186.81" x2="185.73" y2="60.24" xlink:href="#linear-gradient-2"/>
    <linearGradient id="linear-gradient-50" x1="11.43" y1="130.28" x2="119.55" y2="3.71" xlink:href="#linear-gradient-2"/>
    <linearGradient id="linear-gradient-51" x1="42.93" y1="165.01" x2="159.61" y2="28.41" xlink:href="#linear-gradient-2"/>
    <linearGradient id="linear-gradient-52" x1="68.19" y1="178.76" x2="176.31" y2="52.19" xlink:href="#linear-gradient-2"/>
    <linearGradient id="linear-gradient-53" x1="31.08" y1="147.06" x2="139.19" y2="20.49" xlink:href="#linear-gradient-2"/>
    <linearGradient id="linear-gradient-54" x1="4.21" y1="124.12" x2="112.33" y2="-2.46" xlink:href="#linear-gradient-2"/>
    <linearGradient id="linear-gradient-55" x1="68.78" y1="179.27" x2="176.9" y2="52.7" xlink:href="#linear-gradient-2"/>
    <linearGradient id="linear-gradient-56" x1="-16.15" y1="106.72" x2="91.97" y2="-19.85" xlink:href="#linear-gradient-2"/>
    <linearGradient id="linear-gradient-57" x1="15.48" y1="133.74" x2="123.6" y2="7.17" xlink:href="#linear-gradient-2"/>
    <linearGradient id="linear-gradient-58" x1="20.35" y1="131.24" x2="110.56" y2="25.63" xlink:href="#linear-gradient-2"/>
    <linearGradient id="linear-gradient-59" x1="40.13" y1="154.79" x2="148.25" y2="28.22" xlink:href="#linear-gradient-2"/>
    <linearGradient id="linear-gradient-60" x1="8.6" y1="127.86" x2="116.72" y2="1.29" xlink:href="#linear-gradient-2"/>
    <linearGradient id="linear-gradient-61" x1="15.27" y1="133.56" x2="123.39" y2="6.98" xlink:href="#linear-gradient-2"/>
    <linearGradient id="linear-gradient-62" x1="74.79" y1="41.61" x2="97.89" y2="18.08" xlink:href="#linear-gradient-2"/>
    <linearGradient id="linear-gradient-63" x1="-27" y1="97.45" x2="81.12" y2="-29.12" xlink:href="#linear-gradient-2"/>
    <linearGradient id="linear-gradient-64" x1="24.32" y1="141.29" x2="132.44" y2="14.71" xlink:href="#linear-gradient-2"/>
    <linearGradient id="linear-gradient-65" x1="-13.4" y1="109.07" x2="94.72" y2="-17.5" xlink:href="#linear-gradient-2"/>
    <linearGradient id="linear-gradient-66" x1="-22.22" y1="101.53" x2="85.9" y2="-25.04" xlink:href="#linear-gradient-2"/>
    <linearGradient id="linear-gradient-67" x1="3.32" y1="121.44" x2="102.66" y2="5.15" xlink:href="#linear-gradient-2"/>
    <linearGradient id="linear-gradient-68" x1="61.48" y1="173.04" x2="169.6" y2="46.46" xlink:href="#linear-gradient-2"/>
    <linearGradient id="linear-gradient-69" x1="51.17" y1="164.23" x2="159.29" y2="37.66" xlink:href="#linear-gradient-2"/>
    <linearGradient id="linear-gradient-70" x1="76.72" y1="186.05" x2="184.84" y2="59.48" xlink:href="#linear-gradient-2"/>
    <linearGradient id="linear-gradient-71" x1="82.38" y1="190.89" x2="190.5" y2="64.32" xlink:href="#linear-gradient-2"/>
    <linearGradient id="linear-gradient-72" x1="85.89" y1="193.88" x2="194.01" y2="67.31" xlink:href="#linear-gradient-2"/>
    <linearGradient id="linear-gradient-73" x1="71.79" y1="181.84" x2="179.91" y2="55.27" xlink:href="#linear-gradient-2"/>
    <linearGradient id="linear-gradient-74" x1="71.54" y1="181.63" x2="179.66" y2="55.05" xlink:href="#linear-gradient-2"/>
    <linearGradient id="linear-gradient-75" x1="44.33" y1="158.38" x2="152.44" y2="31.81" xlink:href="#linear-gradient-2"/>
    <linearGradient id="linear-gradient-76" x1="53.01" y1="165.8" x2="161.13" y2="39.22" xlink:href="#linear-gradient-2"/>
    <linearGradient id="linear-gradient-77" x1="-6.09" y1="115.31" x2="102.03" y2="-11.26" xlink:href="#linear-gradient-2"/>
    <linearGradient id="linear-gradient-78" x1="-21.3" y1="102.32" x2="86.82" y2="-24.26" xlink:href="#linear-gradient-2"/>
    <linearGradient id="linear-gradient-79" x1="-16.4" y1="106.51" x2="91.72" y2="-20.06" xlink:href="#linear-gradient-2"/>
    <linearGradient id="linear-gradient-80" x1="-29.68" y1="95.16" x2="78.43" y2="-31.41" xlink:href="#linear-gradient-2"/>
    <linearGradient id="linear-gradient-81" x1="11.07" y1="129.97" x2="119.19" y2="3.4" xlink:href="#linear-gradient-2"/>
  </defs>
  <g class="cls-84">
    <g id="Layer_2" data-name="Layer 2">
      <g id="Layer_1-2" data-name="Layer 1">
        <g>
          <circle class="cls-1" cx="81.39" cy="81.55" r="79.71"/>
          <g class="cls-85">
            <g>
              <g>
                <path class="cls-2" d="M98.37,4.43l-13.76-3.11c-1.16-.26-2.27,.62-2.27,1.8,0,1.02,.83,1.85,1.86,1.85h14.11c.33,0,.38-.47,.06-.54Z"/>
                <path class="cls-2" d="M90.54,7.85h20.65c3.47,0,6.62,2.05,8,5.22l6.11,13.99c.32,.73-.47,1.44-1.17,1.05L90.16,9.31c-.71-.39-.43-1.46,.38-1.46Z"/>
                <path class="cls-2" d="M124.92,15.95l5.16,13.2c.75,1.93,2.44,3.34,4.48,3.74l11.34,2.27c.58,.12,.97-.57,.58-1-3.11-3.4-11.71-12.48-20.62-18.92-.5-.36-1.16,.14-.93,.71Z"/>
                <path class="cls-2" d="M136.6,37.3l11.49,2.25c1.92,.38,3.39,1.92,3.65,3.85l3.69,26.71c.07,.48-.57,.7-.82,.29l-19-31.71c-.41-.69,.19-1.54,.98-1.39Z"/>
                <path class="cls-2" d="M132.74,41.65l22,36.37c.56,.93-.11,2.12-1.2,2.12l-20.01,.13c-.83,0-1.48-.7-1.41-1.52l-.8-36.77c.06-.74,1.04-.96,1.43-.33Z"/>
                <path class="cls-2" d="M82.53,78.62l21.68-31.3c.64-.93-.02-2.19-1.15-2.19H59.71c-1.13,0-1.79,1.27-1.15,2.19l21.68,31.3c.56,.8,1.74,.8,2.3,0Z"/>
                <path class="cls-2" d="M57.51,40.09c-.4,.57,0,1.35,.7,1.35h45.5c.6,0,.94-.68,.59-1.16L81.06,8.14c-.3-.41-.9-.4-1.19,0l-22.36,31.94Z"/>
                <path class="cls-2" d="M87.65,77.9l20.26-28.9c.64-.91,2.03-.77,2.48,.25l16.71,29.04c.41,.94-.28,1.99-1.32,1.98l-36.96-.14c-1.15,0-1.82-1.29-1.16-2.23Z"/>
                <path class="cls-2" d="M128.06,37.47l1.28,33.92c-.04,.53-.77,.65-.99,.16l-15.93-27.25c-.43-.99,.06-2.13,1.07-2.51l13.64-5.03c.47-.17,.96,.2,.92,.69Z"/>
                <path class="cls-2" d="M124.18,32.48l-29.91-16.58c-.49-.27-1.01,.3-.69,.76l14.49,20.38c.8,1.13,2.26,1.58,3.56,1.12l12.45-4.45c.55-.2,.61-.95,.1-1.23Z"/>
                <path class="cls-2" d="M158.83,64.87l3.13,13.67c.27,1.16-.62,2.26-1.81,2.26-1.03,0-1.86-.83-1.86-1.85v-14.02c0-.33,.47-.38,.54-.06Z"/>
              </g>
              <g>
                <path class="cls-2" d="M98.37,159.61l-13.76,3.11c-1.16,.26-2.27-.62-2.27-1.8,0-1.02,.83-1.85,1.86-1.85h14.11c.33,0,.38,.47,.06,.54Z"/>
                <path class="cls-2" d="M90.54,156.19h20.65c3.47,0,6.62-2.05,8-5.22l6.11-14c.32-.73-.47-1.44-1.17-1.05l-33.98,18.8c-.71,.39-.43,1.46,.38,1.46Z"/>
                <path class="cls-2" d="M124.92,148.08l5.16-13.2c.75-1.93,2.44-3.34,4.48-3.74l11.34-2.27c.58-.12,.97,.57,.58,1-3.11,3.41-11.71,12.48-20.62,18.93-.5,.36-1.16-.14-.93-.71Z"/>
                <path class="cls-2" d="M136.6,126.73l11.49-2.25c1.92-.38,3.39-1.92,3.65-3.85l3.69-26.72c.07-.48-.57-.7-.82-.29l-19,31.71c-.41,.69,.19,1.54,.98,1.39Z"/>
                <path class="cls-2" d="M132.74,122.37l22-36.38c.56-.93-.11-2.12-1.2-2.12l-20.01-.13c-.83,0-1.48,.7-1.41,1.52l-.8,36.78c.06,.74,1.04,.96,1.43,.33Z"/>
                <path class="cls-2" d="M82.53,85.39l21.68,31.31c.64,.93-.02,2.19-1.15,2.19H59.71c-1.13,0-1.79-1.27-1.15-2.19l21.68-31.31c.56-.8,1.74-.8,2.3,0Z"/>
                <path class="cls-2" d="M57.64,123.82c-.4-.57,0-1.35,.7-1.35h45.5c.6,0,.94,.68,.59,1.16l-23.25,32.13c-.3,.41-.9,.4-1.19,0l-22.36-31.94Z"/>
                <path class="cls-2" d="M87.65,86.12l20.26,28.91c.64,.91,2.03,.77,2.48-.25l16.71-29.05c.41-.94-.28-1.99-1.32-1.98l-36.96,.14c-1.15,0-1.82,1.29-1.16,2.23Z"/>
                <path class="cls-2" d="M128.06,126.56l1.28-33.93c-.04-.53-.77-.65-.99-.16l-15.93,27.25c-.43,.99,.06,2.13,1.07,2.51l13.64,5.03c.47,.17,.96-.2,.92-.69Z"/>
                <path class="cls-2" d="M124.18,131.55l-29.91,16.58c-.49,.27-1.01-.3-.69-.76l14.49-20.39c.8-1.13,2.26-1.58,3.56-1.12l12.45,4.45c.55,.2,.61,.95,.1,1.23Z"/>
                <path class="cls-2" d="M158.83,99.15l3.13-13.68c.27-1.16-.62-2.26-1.81-2.26-1.03,0-1.86,.83-1.86,1.85v14.03c0,.33,.47,.38,.54,.06Z"/>
              </g>
              <g>
                <path class="cls-2" d="M64.4,4.43l13.76-3.11c1.16-.26,2.27,.62,2.27,1.8,0,1.02-.83,1.85-1.86,1.85h-14.11c-.33,0-.38-.47-.06-.54Z"/>
                <path class="cls-2" d="M72.23,7.85h-20.65c-3.47,0-6.62,2.05-8,5.22l-6.11,13.99c-.32,.73,.47,1.44,1.17,1.05L72.61,9.31c.71-.39,.43-1.46-.38-1.46Z"/>
                <path class="cls-2" d="M37.86,15.95l-5.16,13.2c-.75,1.93-2.44,3.34-4.48,3.74l-11.34,2.27c-.58,.12-.97-.57-.58-1,3.11-3.4,11.71-12.48,20.62-18.92,.5-.36,1.16,.14,.93,.71Z"/>
                <path class="cls-2" d="M26.18,37.3l-11.49,2.25c-1.92,.38-3.39,1.92-3.65,3.85l-3.69,26.71c-.07,.48,.57,.7,.82,.29l19-31.71c.41-.69-.19-1.54-.98-1.39Z"/>
                <path class="cls-2" d="M30.03,41.65L8.03,78.03c-.56,.93,.11,2.12,1.2,2.12l20.01,.13c.83,0,1.48-.7,1.41-1.52l.8-36.77c-.06-.74-1.04-.96-1.43-.33Z"/>
                <path class="cls-2" d="M75.12,77.9l-20.26-28.9c-.64-.91-2.03-.77-2.48,.25l-16.71,29.04c-.41,.94,.28,1.99,1.32,1.98l36.96-.14c1.15,0,1.82-1.29,1.16-2.23Z"/>
                <path class="cls-2" d="M34.72,37.47l-1.28,33.92c.04,.53,.77,.65,.99,.16l15.93-27.25c.43-.99-.06-2.13-1.07-2.51l-13.64-5.03c-.47-.17-.96,.2-.92,.69Z"/>
                <path class="cls-2" d="M38.59,32.48l29.91-16.58c.49-.27,1.01,.3,.69,.76l-14.49,20.38c-.8,1.13-2.26,1.58-3.56,1.12l-12.45-4.45c-.55-.2-.61-.95-.1-1.23Z"/>
                <path class="cls-2" d="M3.94,64.87l-3.13,13.67c-.27,1.16,.62,2.26,1.81,2.26,1.03,0,1.86-.83,1.86-1.85v-14.02c0-.33-.47-.38-.54-.06Z"/>
              </g>
              <g>
                <path class="cls-2" d="M64.4,159.61l13.76,3.11c1.16,.26,2.27-.62,2.27-1.8,0-1.02-.83-1.85-1.86-1.85h-14.11c-.33,0-.38,.47-.06,.54Z"/>
                <path class="cls-2" d="M72.23,156.19h-20.65c-3.47,0-6.62-2.05-8-5.22l-6.11-14c-.32-.73,.47-1.44,1.17-1.05l33.98,18.8c.71,.39,.43,1.46-.38,1.46Z"/>
                <path class="cls-2" d="M37.86,148.08l-5.16-13.2c-.75-1.93-2.44-3.34-4.48-3.74l-11.34-2.27c-.58-.12-.97,.57-.58,1,3.11,3.41,11.71,12.48,20.62,18.93,.5,.36,1.16-.14,.93-.71Z"/>
                <path class="cls-2" d="M26.18,126.73l-11.49-2.25c-1.92-.38-3.39-1.92-3.65-3.85l-3.69-26.72c-.07-.48,.57-.7,.82-.29l19,31.71c.41,.69-.19,1.54-.98,1.39Z"/>
                <path class="cls-2" d="M30.03,122.37L8.03,85.99c-.56-.93,.11-2.12,1.2-2.12l20.01-.13c.83,0,1.48,.7,1.41,1.52l.8,36.78c-.06,.74-1.04,.96-1.43,.33Z"/>
                <path class="cls-2" d="M75.12,86.12l-20.26,28.91c-.64,.91-2.03,.77-2.48-.25l-16.71-29.05c-.41-.94,.28-1.99,1.32-1.98l36.96,.14c1.15,0,1.82,1.29,1.16,2.23Z"/>
                <path class="cls-2" d="M34.72,126.56l-1.28-33.93c.04-.53,.77-.65,.99-.16l15.93,27.25c.43,.99-.06,2.13-1.07,2.51l-13.64,5.03c-.47,.17-.96-.2-.92-.69Z"/>
                <path class="cls-2" d="M38.59,131.55l29.91,16.58c.49,.27,1.01-.3,.69-.76l-14.49-20.39c-.8-1.13-2.26-1.58-3.56-1.12l-12.45,4.45c-.55,.2-.61,.95-.1,1.23Z"/>
                <path class="cls-2" d="M3.94,99.15l-3.13-13.68c-.27-1.16,.62-2.26,1.81-2.26,1.03,0,1.86,.83,1.86,1.85v14.03c0,.33-.47,.38-.54,.06Z"/>
              </g>
            </g>
          </g>
          <g>
            <g>
              <path class="cls-7" d="M98.53,3.19L84.64,.05c-1.18-.27-2.3,.62-2.3,1.82,0,1.03,.84,1.87,1.88,1.87h14.25c.33,0,.38-.47,.06-.54Z"/>
              <path class="cls-5" d="M90.63,6.64h20.85c3.51,0,6.68,2.07,8.08,5.27l6.17,14.12c.32,.73-.48,1.45-1.18,1.06L90.24,8.12c-.71-.39-.43-1.47,.39-1.47Z"/>
              <path class="cls-6" d="M125.33,14.82l5.21,13.32c.76,1.94,2.46,3.37,4.52,3.78l11.45,2.29c.58,.12,.98-.57,.58-1.01-3.14-3.44-11.82-12.6-20.82-19.1-.5-.36-1.17,.15-.94,.72Z"/>
              <path class="cls-10" d="M137.12,36.37l11.6,2.27c1.94,.38,3.42,1.94,3.69,3.88l3.73,26.96c.07,.48-.58,.71-.83,.29l-19.18-32.01c-.42-.7,.19-1.56,.99-1.4Z"/>
              <path class="cls-8" d="M133.23,40.77l22.21,36.72c.57,.94-.11,2.14-1.21,2.14l-20.24,.13c-.84,0-1.5-.71-1.43-1.54l-.77-37.12c.06-.74,1.05-.97,1.44-.33Z"/>
              <path class="cls-9" d="M82.53,78.1l21.91-31.64c.64-.93-.02-2.19-1.15-2.19H59.48c-1.13,0-1.79,1.27-1.15,2.19l21.91,31.64c.56,.8,1.74,.8,2.3,0Z"/>
              <path class="cls-3" d="M87.71,77.36l20.45-29.17c.64-.92,2.05-.78,2.5,.25l16.83,29.32c.41,.95-.29,2.01-1.33,2l-37.28-.15c-1.16,0-1.84-1.3-1.18-2.25Z"/>
              <path class="cls-4" d="M128.5,36.55l1.26,34.24c-.04,.54-.78,.66-1,.17l-16.04-27.5c-.44-1,.06-2.15,1.08-2.53l13.77-5.07c.47-.17,.97,.2,.93,.7Z"/>
              <path class="cls-66" d="M124.58,31.51l-30.19-16.74c-.49-.27-1.02,.31-.69,.77l14.62,20.58c.81,1.14,2.28,1.6,3.6,1.13l12.57-4.49c.56-.2,.62-.96,.1-1.24Z"/>
              <path class="cls-67" d="M159.56,64.2l3.16,13.8c.27,1.17-.63,2.28-1.83,2.28-1.04,0-1.88-.84-1.88-1.87v-14.16c0-.33,.47-.38,.55-.06Z"/>
            </g>
            <g>
              <path class="cls-65" d="M98.53,159.84l-13.89,3.14c-1.18,.27-2.3-.62-2.3-1.82,0-1.03,.84-1.87,1.88-1.87h14.25c.33,0,.38,.47,.06,.55Z"/>
              <path class="cls-64" d="M90.63,156.39h20.85c3.51,0,6.68-2.07,8.08-5.27l6.17-14.13c.32-.73-.48-1.45-1.18-1.06l-34.3,18.98c-.71,.4-.43,1.48,.39,1.48Z"/>
              <path class="cls-54" d="M125.33,148.2l5.21-13.33c.76-1.94,2.46-3.37,4.52-3.78l11.45-2.29c.58-.12,.98,.57,.58,1.01-3.14,3.44-11.82,12.6-20.82,19.1-.5,.36-1.17-.15-.94-.72Z"/>
              <path class="cls-60" d="M137.12,126.65l11.6-2.27c1.94-.38,3.42-1.94,3.69-3.88l3.73-26.97c.07-.48-.58-.71-.83-.29l-19.18,32.01c-.42,.7,.19,1.56,.99,1.4Z"/>
              <path class="cls-62" d="M133.23,122.25l22.21-36.73c.57-.94-.11-2.14-1.21-2.14l-20.24-.13c-.84,0-1.5,.71-1.43,1.54l-.77,37.13c.06,.75,1.05,.97,1.44,.33Z"/>
              <path class="cls-63" d="M82.53,84.91l21.91,31.64c.64,.93-.02,2.19-1.15,2.19H59.48c-1.13,0-1.79-1.27-1.15-2.19l21.91-31.64c.56-.8,1.74-.8,2.3,0Z"/>
              <path class="cls-55" d="M58.07,123.99c-.4-.57,0-1.35,.7-1.35h45.5c.6,0,.94,.68,.59,1.16l-23.25,32.13c-.3,.41-.9,.4-1.19,0l-22.36-31.94Z"/>
              <path class="cls-61" d="M58.07,39.04c-.4,.57,0,1.35,.7,1.35h45.5c.6,0,.94-.68,.59-1.16L81.62,7.1c-.3-.41-.9-.4-1.19,0l-22.36,31.94Z"/>
              <path class="cls-57" d="M87.71,85.65l20.45,29.18c.64,.92,2.05,.78,2.5-.25l16.83-29.33c.41-.95-.29-2.01-1.33-2l-37.28,.15c-1.16,0-1.84,1.3-1.18,2.25Z"/>
              <path class="cls-58" d="M128.5,126.47l1.26-34.25c-.04-.54-.78-.66-1-.17l-16.04,27.51c-.44,1,.06,2.15,1.08,2.53l13.77,5.07c.47,.17,.97-.2,.93-.7Z"/>
              <path class="cls-56" d="M124.58,131.51l-30.19,16.74c-.49,.27-1.02-.31-.69-.77l14.62-20.58c.81-1.14,2.28-1.6,3.6-1.13l12.57,4.49c.56,.2,.62,.96,.1,1.24Z"/>
              <path class="cls-59" d="M159.56,98.81l3.16-13.81c.27-1.17-.63-2.28-1.83-2.28-1.04,0-1.88,.84-1.88,1.87v14.16c0,.33,.47,.38,.55,.06Z"/>
            </g>
            <g>
              <path class="cls-69" d="M64.24,3.19L78.13,.05c1.18-.27,2.3,.62,2.3,1.82,0,1.03-.84,1.87-1.88,1.87h-14.25c-.33,0-.38-.47-.06-.54Z"/>
              <path class="cls-77" d="M72.14,6.64h-20.85c-3.51,0-6.68,2.07-8.08,5.27l-6.17,14.12c-.32,.73,.48,1.45,1.18,1.06L72.53,8.12c.71-.39,.43-1.47-.39-1.47Z"/>
              <path class="cls-70" d="M37.44,14.82l-5.21,13.32c-.76,1.94-2.46,3.37-4.52,3.78l-11.45,2.29c-.58,.12-.98-.57-.58-1.01,3.14-3.44,11.82-12.6,20.82-19.1,.5-.36,1.17,.15,.94,.72Z"/>
              <path class="cls-68" d="M25.65,36.37l-11.6,2.27c-1.94,.38-3.42,1.94-3.69,3.88l-3.73,26.96c-.07,.48,.58,.71,.83,.29L26.65,37.77c.42-.7-.19-1.56-.99-1.4Z"/>
              <path class="cls-78" d="M29.54,40.77L7.33,77.48c-.57,.94,.11,2.14,1.21,2.14l20.24,.13c.84,0,1.5-.71,1.43-1.54l.77-37.12c-.06-.74-1.05-.97-1.44-.33Z"/>
              <path class="cls-79" d="M75.06,77.36l-20.45-29.17c-.64-.92-2.05-.78-2.5,.25l-16.83,29.32c-.41,.95,.29,2.01,1.33,2l37.28-.15c1.16,0,1.84-1.3,1.18-2.25Z"/>
              <path class="cls-81" d="M34.28,36.55l-1.26,34.24c.04,.54,.78,.66,1,.17l16.04-27.5c.44-1-.06-2.15-1.08-2.53l-13.77-5.07c-.47-.17-.97,.2-.93,.7Z"/>
              <path class="cls-83" d="M38.19,31.51l30.19-16.74c.49-.27,1.02,.31,.69,.77l-14.62,20.58c-.81,1.14-2.28,1.6-3.6,1.13l-12.57-4.49c-.56-.2-.62-.96-.1-1.24Z"/>
              <path class="cls-82" d="M3.21,64.2L.05,78.01c-.27,1.17,.63,2.28,1.83,2.28,1.04,0,1.88-.84,1.88-1.87v-14.16c0-.33-.47-.38-.55-.06Z"/>
            </g>
            <g>
              <path class="cls-80" d="M64.24,159.84l13.89,3.14c1.18,.27,2.3-.62,2.3-1.82,0-1.03-.84-1.87-1.88-1.87h-14.25c-.33,0-.38,.47-.06,.55Z"/>
              <path class="cls-74" d="M72.14,156.39h-20.85c-3.51,0-6.68-2.07-8.08-5.27l-6.17-14.13c-.32-.73,.48-1.45,1.18-1.06l34.3,18.98c.71,.4,.43,1.48-.39,1.48Z"/>
              <path class="cls-72" d="M37.44,148.2l-5.21-13.33c-.76-1.94-2.46-3.37-4.52-3.78l-11.45-2.29c-.58-.12-.98,.57-.58,1.01,3.14,3.44,11.82,12.6,20.82,19.1,.5,.36,1.17-.15,.94-.72Z"/>
              <path class="cls-76" d="M25.65,126.65l-11.6-2.27c-1.94-.38-3.42-1.94-3.69-3.88l-3.73-26.97c-.07-.48,.58-.71,.83-.29l19.18,32.01c.42,.7-.19,1.56-.99,1.4Z"/>
              <path class="cls-73" d="M29.54,122.25L7.33,85.53c-.57-.94,.11-2.14,1.21-2.14l20.24-.13c.84,0,1.5,.71,1.43,1.54l.77,37.13c-.06,.75-1.05,.97-1.44,.33Z"/>
              <path class="cls-71" d="M75.06,85.65l-20.45,29.18c-.64,.92-2.05,.78-2.5-.25l-16.83-29.33c-.41-.95,.29-2.01,1.33-2l37.28,.15c1.16,0,1.84,1.3,1.18,2.25Z"/>
              <path class="cls-75" d="M34.28,126.47l-1.26-34.25c.04-.54,.78-.66,1-.17l16.04,27.51c.44,1-.06,2.15-1.08,2.53l-13.77,5.07c-.47,.17-.97-.2-.93-.7Z"/>
              <path class="cls-45" d="M38.19,131.51l30.19,16.74c.49,.27,1.02-.31,.69-.77l-14.62-20.58c-.81-1.14-2.28-1.6-3.6-1.13l-12.57,4.49c-.56,.2-.62,.96-.1,1.24Z"/>
              <path class="cls-44" d="M3.21,98.81L.05,85c-.27-1.17,.63-2.28,1.83-2.28,1.04,0,1.88,.84,1.88,1.87v14.16c0,.33-.47,.38-.55,.06Z"/>
            </g>
          </g>
          <g class="cls-11">
            <path class="cls-47" d="M128.33,126.47l1.26-34.25c-.04-.54-.78-.66-1-.17l-.17,.4c.18,.06,.33,.21,.35,.44l-1.26,34.25s0,.02,0,.03c.44,.09,.87-.24,.83-.71Z"/>
            <path class="cls-46" d="M112.72,41.64s.06-.03,.1-.05l13.77-5.07c.47-.17,.97,.2,.93,.7l1.28,33.96c.3,.19,.77,.03,.8-.39l-1.26-34.24c.04-.5-.46-.87-.93-.7l-13.77,5.07c-.39,.14-.7,.4-.92,.72Z"/>
            <path class="cls-50" d="M104.41,116.74l-22.14-31.98c-.51-.73-1.59-.73-2.1,0l-.12,.18c.5-.14,1.07,.02,1.4,.5l22.14,31.98c.28,.41,.28,.89,.09,1.28,.82-.21,1.25-1.2,.73-1.96Z"/>
            <path class="cls-48" d="M104.1,122.64H58.6c-.35,0-.62,.2-.76,.46h45.02c.6,0,.94,.68,.59,1.16l-23.02,31.82c.31,.23,.77,.19,1.01-.15l23.25-32.13c.35-.48,0-1.16-.59-1.16Z"/>
            <path class="cls-49" d="M127.32,77.75l-16.83-29.32c-.45-1.03-1.86-1.17-2.5-.25l-.1,.14c.67-.22,1.46,.05,1.78,.78l16.83,29.32c.19,.43,.14,.89-.07,1.26,.78-.24,1.24-1.12,.89-1.93Z"/>
            <path class="cls-52" d="M29.38,40.77l-.18,.3c.38,0,.76,.25,.8,.7l-.77,37.12c.02,.29-.04,.56-.17,.79,.62-.19,1.05-.79,.99-1.46l.77-37.12c-.06-.74-1.05-.97-1.44-.33Z"/>
            <path class="cls-53" d="M34.12,36.51s.07,0,.1,0l13.77,5.07c1.02,.38,1.52,1.53,1.08,2.53l-15.87,27.11c.24,.08,.53,0,.65-.28l16.04-27.5c.44-1-.06-2.15-1.08-2.53l-13.77-5.07c-.46-.17-.94,.18-.92,.66Z"/>
            <path class="cls-51" d="M160.73,82.72c-.65,0-1.22,.33-1.56,.82,.23-.1,.47-.15,.73-.15,1.21,0,2.1,1.11,1.83,2.28l-2.89,12.61v.46c0,.33,.47,.38,.55,.06l3.16-13.81c.27-1.17-.63-2.28-1.83-2.28Z"/>
            <path class="cls-21" d="M57.94,44.99c.1-.03,.21-.05,.32-.05h44.28c1.03,0,1.64,1.16,1.05,2l-22.02,31.79c.27-.08,.52-.24,.7-.5l22.14-31.97c.59-.85-.02-2-1.05-2H59.08c-.53,0-.94,.31-1.14,.72Z"/>
            <path class="cls-19" d="M109.67,115.26s-.05,.08-.07,.12c.38-.12,.71-.38,.89-.79l16.83-29.33c.41-.95-.29-2.01-1.33-2l-37.28,.15c-.57,0-1.01,.31-1.25,.74,.13-.04,.28-.07,.43-.07l37.28-.15c1.04,0,1.74,1.05,1.33,2l-16.83,29.33Z"/>
            <path class="cls-20" d="M154.06,83.38l-20.24-.13c-.55,0-1.02,.3-1.26,.75,.14-.04,.28-.07,.43-.07l20.24,.13c1.1,0,1.78,1.2,1.21,2.14l-22.03,36.42c.24,0,.49-.12,.64-.37l22.21-36.73c.57-.94-.11-2.14-1.21-2.14Z"/>
            <path class="cls-17" d="M125.28,14.78c9,6.5,17.68,15.66,20.82,19.1,.09,.1,.13,.21,.15,.32l.09,.02c.58,.12,.98-.57,.58-1.01-3.14-3.44-11.82-12.6-20.82-19.1-.47-.34-1.07,.08-.97,.6,.05,.02,.1,.04,.15,.07Z"/>
            <path class="cls-18" d="M26.48,125.25L7.3,93.24c-.25-.42-.9-.19-.83,.29l.07,.48,19.12,31.91c.15,.24,.16,.51,.09,.74,.66-.05,1.1-.79,.73-1.41Z"/>
            <path class="cls-15" d="M161.74,78.68c.12,.53,0,1.04-.28,1.45,.81-.34,1.32-1.21,1.11-2.13l-3.16-13.8c-.07-.32-.55-.27-.55,.06v1.81l2.89,12.61Z"/>
            <path class="cls-16" d="M68.22,14.78l-30.2,16.74c-.17,.09-.27,.24-.32,.39l29.69-16.46c.49-.27,1.02,.31,.69,.77l-14.62,20.58c-.06,.08-.13,.15-.19,.23,.39-.22,.74-.52,1.01-.9l14.62-20.58c.33-.46-.2-1.04-.69-.77Z"/>
            <path class="cls-13" d="M53.73,115.36c.28-.09,.53-.26,.72-.53l20.45-29.18c.66-.95-.01-2.25-1.18-2.25l-37.28-.15c-.56,0-1.02,.31-1.26,.75,.14-.04,.28-.07,.44-.07l37.28,.15c1.16,0,1.84,1.3,1.18,2.25l-20.35,29.03Z"/>
            <path class="cls-14" d="M32.85,92.22l-.02,.28c.08,.05,.15,.12,.2,.23l16.04,27.51c.27,.62,.18,1.29-.17,1.81,.96-.41,1.41-1.52,.99-2.48l-16.04-27.51c-.22-.49-.95-.37-1,.17Z"/>
            <path class="cls-12" d="M68.91,147.49l-14.62-20.58c-.81-1.14-2.28-1.6-3.6-1.13l-12.57,4.49c-.26,.09-.41,.31-.44,.54l12.19-4.35c1.32-.47,2.79,0,3.6,1.13l14.62,20.58s0,.02,.01,.03l.12,.06c.49,.27,1.02-.31,.69-.77Z"/>
            <path class="cls-39" d="M52.02,48.32c.56-.17,1.22,0,1.61,.54l20.45,29.17c.34,.49,.32,1.06,.07,1.51,.89-.27,1.32-1.36,.75-2.18l-20.45-29.17c-.62-.88-1.93-.78-2.43,.13Z"/>
            <path class="cls-41" d="M124.42,31.51l-30.19-16.74c-.48-.27-.99,.28-.71,.74l30.08,16.67c.28,.15,.38,.44,.34,.71l.38-.14c.56-.2,.62-.96,.1-1.24Z"/>
            <path class="cls-40" d="M104.7,39.23L81.45,7.1c-.3-.41-.9-.4-1.19,0l-.11,.16c.07,.05,.15,.1,.2,.17l23.25,32.13c.19,.26,.17,.58,.02,.82h.49c.6,0,.94-.68,.59-1.16Z"/>
            <path class="cls-36" d="M13.06,39.32l11.6-2.27c.8-.16,1.41,.7,.99,1.4L6.77,69.97c.18,.06,.41,.02,.53-.19L26.48,37.77c.42-.7-.19-1.56-.99-1.4l-11.6,2.27c-.97,.19-1.83,.68-2.48,1.36,.49-.33,1.05-.57,1.65-.69Z"/>
            <path class="cls-35" d="M32.07,134.88c-.76-1.94-2.46-3.37-4.52-3.78l-11.45-2.29c-.45-.09-.79,.3-.73,.69l11.36,2.27c2.06,.41,3.76,1.84,4.52,3.78l5.21,13.33s.02,.08,.02,.12c.47,.19,1-.27,.8-.79l-5.21-13.33Z"/>
            <path class="cls-38" d="M1.71,82.72c-.66,0-1.21,.34-1.55,.83,.22-.09,.46-.15,.73-.15,1.04,0,1.88,.84,1.88,1.87v12.35l.27,1.2c.07,.32,.55,.27,.55-.06v-14.16c0-1.03-.84-1.87-1.88-1.87Z"/>
            <path class="cls-37" d="M3.04,64.21l-.27,1.2v13.7c0,.39-.12,.75-.32,1.04,.67-.28,1.14-.95,1.14-1.72v-14.16c0-.33-.47-.38-.55-.06Z"/>
            <path class="cls-33" d="M29.99,122.63c.39,.02,.79-.24,.83-.7l-.77-37.13c.07-.83-.59-1.54-1.43-1.54l-20.24,.13c-.56,0-1.01,.31-1.24,.74,.13-.04,.27-.07,.42-.07l20.24-.13c.84,0,1.5,.71,1.43,1.54l.77,37.13s0,.02,0,.03Z"/>
            <path class="cls-32" d="M78.39,159.3h-14.25c-.33,0-.38,.47-.06,.55l.57,.13h12.92c1.04,0,1.88,.84,1.88,1.87,0,.39-.13,.74-.33,1.04,.67-.28,1.15-.93,1.15-1.71,0-1.03-.84-1.87-1.88-1.87Z"/>
            <path class="cls-34" d="M148.56,38.64l-11.6-2.27c-.52-.1-.96,.23-1.09,.66,.08,0,.17,0,.26,.01l11.6,2.27c1.94,.38,3.42,1.94,3.69,3.88l3.66,26.48,.06,.1c.25,.42,.9,.19,.83-.29l-3.73-26.96c-.27-1.94-1.75-3.5-3.69-3.88Z"/>
            <path class="cls-28" d="M124.38,135.93l-34.3,18.98c-.19,.1-.3,.25-.36,.42l33.84-18.73c.7-.39,1.5,.33,1.18,1.06l-6.17,14.13c-.49,1.11-1.2,2.08-2.05,2.88,1.23-.9,2.24-2.1,2.87-3.55l6.17-14.13c.32-.73-.48-1.45-1.18-1.06Z"/>
            <path class="cls-29" d="M155.14,93.24l-.29,.48c.18,.06,.33,.24,.3,.48l-3.73,26.97c-.13,.97-.57,1.84-1.21,2.52,1.08-.71,1.85-1.86,2.03-3.19l3.73-26.97c.07-.48-.58-.71-.83-.29Z"/>
            <path class="cls-30" d="M146.34,128.81l-11.45,2.29c-1.18,.24-2.23,.81-3.07,1.62,.67-.45,1.43-.78,2.25-.95l11.45-2.29c.58-.12,.98,.57,.58,1.01-2.53,2.77-8.66,9.26-15.65,15.07,7.33-5.98,13.84-12.87,16.47-15.75,.4-.44,0-1.13-.58-1.01Z"/>
            <path class="cls-31" d="M98.3,159.3h-14.25c-.65,0-1.22,.33-1.56,.82,.23-.1,.47-.15,.73-.15h14.25s.08,.03,.12,.05l.77-.17c.32-.07,.27-.55-.06-.55Z"/>
            <path class="cls-25" d="M124.42,131.51c.52-.29,.45-1.04-.1-1.24l-12.57-4.49c-1.22-.44-2.57-.06-3.4,.9,.77-.43,1.71-.54,2.58-.23l12.57,4.49c.38,.13,.52,.52,.42,.85l.51-.28Z"/>
            <path class="cls-26" d="M71.98,156.39c.82,0,1.1-1.08,.39-1.48l-34.3-18.98c-.54-.3-1.13,.06-1.23,.57,.13,0,.27,.02,.41,.1l34.3,18.98c.33,.18,.44,.5,.39,.8h.05Z"/>
            <path class="cls-27" d="M155.27,77.48l-22.21-36.72c-.38-.63-1.34-.42-1.43,.3,.23,.01,.46,.13,.61,.37l22.21,36.72c.28,.46,.26,.99,.03,1.4,.84-.26,1.29-1.26,.79-2.08Z"/>
            <path class="cls-22" d="M83.65,.72l13.32,3.01h1.33c.33,0,.38-.47,.06-.54L84.47,.05c-.79-.18-1.55,.17-1.97,.78,.35-.15,.74-.2,1.14-.11Z"/>
            <path class="cls-23" d="M50.31,7.32h20.85c.6,0,.91,.59,.75,1.06l.46-.26c.71-.39,.43-1.47-.39-1.47h-20.85c-2.29,0-4.42,.89-6.03,2.39,1.48-1.08,3.29-1.72,5.2-1.72Z"/>
            <path class="cls-24" d="M64.02,3.69l13.12-2.97c1.18-.27,2.3,.62,2.3,1.82,0,.39-.12,.75-.32,1.04,.67-.28,1.14-.95,1.14-1.72,0-1.2-1.12-2.09-2.3-1.82l-13.89,3.14c-.27,.06-.26,.4-.06,.5Z"/>
            <path class="cls-43" d="M35.51,14.78c.5-.36,1.17,.15,.94,.72l-5.21,13.32c-.32,.83-.83,1.56-1.45,2.16,1.01-.69,1.81-1.66,2.27-2.83l5.21-13.32c.22-.57-.44-1.08-.94-.72-1.75,1.26-3.49,2.63-5.18,4.04,1.43-1.17,2.89-2.3,4.35-3.36Z"/>
            <path class="cls-42" d="M89.69,7.32h20.8c3.51,0,6.68,2.07,8.08,5.27l6.17,14.12c.07,.17,.08,.33,.05,.49,.56,0,1.03-.57,.77-1.16l-6.17-14.12c-1.4-3.2-4.57-5.27-8.08-5.27h-20.85c-.44,0-.72,.32-.78,.67Z"/>
          </g>
        </g>
      </g>
    </g>
  </g>
</svg>