<?xml version="1.0" encoding="UTF-8"?>
<svg id="Layer_2" data-name="Layer 2" xmlns="http://www.w3.org/2000/svg" viewBox="0 0 917.95 907.35">
  <defs>
    <style>
      .cls-1 {
        fill: #3b85c5;
      }

      .cls-1, .cls-2 {
        fill-rule: evenodd;
      }

      .cls-2 {
        fill: #2254a7;
      }
    </style>
  </defs>
  <g id="Layer_4" data-name="Layer 4">
    <g>
      <path class="cls-1" d="M357.23,2.17l80.87,39.25c6.04,2.93,4.93,11.85-1.65,13.21l-185.53,38.39c-7.38,1.53-11.66-8.05-5.61-12.53L349.97,2.85c2.1-1.56,4.9-1.82,7.26-.68Z"/>
      <path class="cls-1" d="M220.28,133.19l236.23-47.29c6-1.2,10.56,5.3,7.4,10.53l-109.83,181.69c-2.41,3.98-7.95,4.57-11.14,1.18l-126.4-134.4c-3.78-4.02-1.67-10.63,3.74-11.71Z"/>
      <path class="cls-1" d="M192.32,167.86l121.09,138.76c3.23,3.7,1.76,9.5-2.85,11.21l-187.09,69.64c-5.49,2.04-10.93-3.13-9.16-8.71l66-208.4c1.66-5.23,8.4-6.63,12-2.5Z"/>
      <path class="cls-1" d="M388.4,299.25l107.69-201.74c2.5-4.69,9.11-5.01,12.06-.59l126.7,190.13c3.03,4.54-.05,10.65-5.5,10.92l-234.39,11.61c-5.46,.27-9.12-5.51-6.55-10.33Z"/>
      <path class="cls-1" d="M387.36,343.63l241.4-11.55c6.47-.31,9.95,7.49,5.39,12.1l-191.02,193.12c-3.84,3.88-10.44,2.16-11.9-3.1l-50.38-181.57c-1.22-4.39,1.96-8.78,6.51-9Z"/>
      <path class="cls-1" d="M340.1,360.28l55.79,179.6c1.9,6.12-4.71,11.39-10.25,8.17l-229.04-133.05c-5.41-3.14-4.33-11.25,1.71-12.87l173.26-46.55c3.65-.98,7.42,1.1,8.54,4.71Z"/>
      <path class="cls-1" d="M140.76,197.16l-53.97,180.34c-1.9,6.36-10.74,6.78-13.25,.64l-40.57-99.39c-1.15-2.81-.36-6.03,1.94-8l94.54-80.95c5.33-4.56,13.32,.64,11.31,7.36Z"/>
      <path class="cls-1" d="M23.35,343.93l42.83,80.25c.69,1.3,.5,2.89-.48,3.99L6.15,495.12c-2.28,2.56-6.51,.68-6.12-2.73l16.73-147.2c.39-3.43,4.97-4.3,6.6-1.26Z"/>
      <path class="cls-1" d="M82.79,478.24l8.92,178.5c.36,7.28-9.22,10.24-13.02,4.02L9.77,548.03c-1.63-2.67-1.3-6.1,.8-8.41l60-65.77c4.21-4.62,11.91-1.86,12.22,4.39Z"/>
      <path class="cls-1" d="M82,694.77l35.07,40.67c.77,.89,.46,2.27-.62,2.75l-12.81,5.72c-.87,.39-1.89,.01-2.3-.84l-22.26-46.39c-.89-1.85,1.58-3.46,2.92-1.91Z"/>
      <path class="cls-1" d="M120.27,763.33l11.1-10.03c.74-.67,1.9-.59,2.53,.18l33.85,40.97c1.3,1.57-.67,3.72-2.35,2.57l-44.96-30.94c-.94-.64-1.02-1.99-.18-2.75Z"/>
      <path class="cls-1" d="M217.08,797.47l159.07,49.98c6.07,1.91,6.69,10.25,.97,13.03l-68.47,33.33c-2.6,1.27-5.71,.81-7.84-1.15l-90.6-83.32c-5.53-5.09-.3-14.14,6.87-11.88Z"/>
      <path class="cls-1" d="M165.66,722.44l88.91-61.53c2.92-2.02,6.89-1.55,9.26,1.11l125.13,140.68c4.87,5.47-.83,13.81-7.69,11.27l-214.03-79.15c-5.34-1.97-6.24-9.14-1.56-12.38Z"/>
      <path class="cls-1" d="M128.65,505l96.86,120.6c2.58,3.21,1.86,7.95-1.57,10.25l-89.84,60.18c-4.57,3.06-10.73-.07-10.94-5.57l-7.02-180.78c-.26-6.77,8.27-9.96,12.51-4.68Z"/>
      <path class="cls-2" d="M140.15,446.68l274.82,171.56c1.46,.91,3.36,.71,4.6-.49L802.89,245.66c3.26-3.16,8.28,1.1,5.7,4.83L441.02,781.04c-4,5.77-12.35,6.24-16.98,.96L135.34,452.33c-2.84-3.25,1.15-7.94,4.81-5.65Z"/>
      <path class="cls-1" d="M602.57,644.37l98.87,119.74c3.37,4.08,1.2,10.27-3.98,11.36l-219.15,46.07c-6.3,1.32-10.92-5.8-7.14-11.01l120.28-165.81c2.7-3.72,8.19-3.89,11.11-.35Z"/>
      <path class="cls-1" d="M627.78,603.19l101.34,135.05c3.34,4.45,10.29,3.44,12.22-1.78l74.58-201.93c2.09-5.66-3.45-11.15-9.1-9.01l-175.92,66.89c-4.37,1.66-5.93,7.05-3.13,10.79Z"/>
      <path class="cls-1" d="M674.22,523.63l72.9-99.72c1.14-1.56,3.31-1.91,4.88-.79l64.01,45.71c2.27,1.62,1.84,5.11-.75,6.13l-136.91,54.01c-3.28,1.29-6.21-2.5-4.13-5.35Z"/>
      <path class="cls-1" d="M767.82,388.26l59.81,45.62c2.41,1.84,5.86-.03,5.64-3.05l-8.91-121.28c-.24-3.33-4.56-4.48-6.42-1.71l-50.9,75.65c-1.04,1.54-.69,3.63,.78,4.76Z"/>
      <path class="cls-1" d="M861.28,276.38l56.17,93.74c.7,1.17,.66,2.64-.1,3.77l-43.53,64.51c-1.86,2.76-6.15,1.63-6.42-1.69l-12.64-158.25c-.3-3.71,4.61-5.28,6.52-2.09Z"/>
      <path class="cls-1" d="M917.34,434.69l-10.9,116.94c-.35,3.74-5.53,4.4-6.81,.87l-23.79-65.97c-.38-1.06-.23-2.24,.4-3.17l34.69-50.98c2.04-3,6.74-1.31,6.41,2.3Z"/>
      <path class="cls-1" d="M864.02,529l30.68,101.01c.79,2.61,0,5.44-2.02,7.27l-94.5,85.11c-5.39,4.86-13.71-.64-11.36-7.51l63.82-186.12c2.21-6.45,11.4-6.29,13.38,.24Z"/>
      <path class="cls-1" d="M805.28,748.58l-32.12,42.15c-.66,.87-1.96,.93-2.7,.12l-8.7-9.52c-.69-.75-.59-1.92,.2-2.56l40.81-32.63c1.62-1.29,3.75,.79,2.5,2.44Z"/>
      <path class="cls-1" d="M744.8,794.22l10.31,16.54c.55,.88,.22,2.03-.7,2.5l-60.46,30.45c-1.81,.91-3.47-1.46-1.99-2.85l50.15-46.99c.81-.76,2.11-.59,2.69,.35Z"/>
      <path class="cls-1" d="M671.79,821.46l-95.77,77.09c-1,.8-2.36,1-3.54,.51l-93.72-38.55c-3.21-1.32-2.77-6,.64-6.7l189.5-38.55c3.61-.73,5.78,3.87,2.91,6.18Z"/>
      <path class="cls-1" d="M432.31,857.44l62.5,43.51c2.9,2.02,1.35,6.57-2.18,6.4l-123.54-5.89c-3.45-.16-4.62-4.69-1.68-6.51l61.03-37.62c1.19-.73,2.7-.69,3.85,.11Z"/>
      <path class="cls-1" d="M443.74,0l102.84,4.83c7.21,.34,9.29,10.02,2.86,13.29l-48.36,24.57c-2.06,1.05-4.5,1.01-6.53-.08l-54.48-29.41c-6.58-3.55-3.8-13.56,3.67-13.21Z"/>
      <path class="cls-1" d="M608.6,15.6l-63.62,27.54c-5.75,2.49-5.62,10.7,.22,13l186.85,73.6c7.46,2.94,13.24-6.89,7.04-11.98l-123.23-101.15c-2.04-1.67-4.84-2.06-7.26-1.02Z"/>
      <path class="cls-1" d="M818.32,168.51l25.7,20.04c.35,.27,.59,.67,.66,1.11l4.48,28.44c.3,1.89-2.22,2.83-3.23,1.2l-30.18-48.47c-1.04-1.67,1.02-3.52,2.57-2.32Z"/>
      <path class="cls-1" d="M553.64,90.56l229.18,99.59c4.71,2.05,5.71,8.28,1.88,11.7l-92.89,82.82c-3.08,2.74-7.85,2.26-10.31-1.04l-136.29-182.41c-4.32-5.78,1.82-13.53,8.44-10.66Z"/>
      <path class="cls-1" d="M224.25,72.18l-42.38,36.2c-2.2,1.87-5.59,.45-5.79-2.43l-1.44-20.53c-.11-1.57,.84-3.03,2.32-3.56l43.81-15.66c3.68-1.31,6.44,3.45,3.47,5.98Z"/>
      <path class="cls-1" d="M154.01,120.66l3.39,17.58c.26,1.36-.3,2.75-1.43,3.55l-35.55,24.91c-3.28,2.3-7.24-1.8-4.82-5l32.16-42.49c1.84-2.43,5.68-1.53,6.26,1.46Z"/>
    </g>
  </g>
</svg>